<svg width="23" height="22" viewBox="0 0 23 22" fill="none" xmlns="http://www.w3.org/2000/svg">
<path d="M7.94545 22L5.95909 18.6476L2.19545 17.8095L2.56136 13.9333L0 11L2.56136 8.06667L2.19545 4.19048L5.95909 3.35238L7.94545 0L11.5 1.51905L15.0545 0L17.0409 3.35238L20.8045 4.19048L20.4386 8.06667L23 11L20.4386 13.9333L20.8045 17.8095L17.0409 18.6476L15.0545 22L11.5 20.481L7.94545 22ZM8.83409 19.3286L11.5 18.1762L14.2182 19.3286L15.6818 16.8143L18.5568 16.1333L18.2955 13.2L20.2295 11L18.2955 8.74762L18.5568 5.81429L15.6818 5.18571L14.1659 2.67143L11.5 3.82381L8.78182 2.67143L7.31818 5.18571L4.44318 5.81429L4.70455 8.74762L2.77045 11L4.70455 13.2L4.44318 16.1857L7.31818 16.8143L8.83409 19.3286ZM10.4023 14.719L16.3091 8.8L14.8455 7.28095L10.4023 11.7333L8.15454 9.53333L6.69091 11L10.4023 14.719Z" fill="#2BC7BC"/>
</svg>