<svg width="48" height="34" viewBox="0 0 48 34" fill="none" xmlns="http://www.w3.org/2000/svg">
<path d="M17.5246 1.57851C17.5246 2.3816 15.5761 5.13506 13.2623 7.54434C10.9485 9.95362 9 12.4776 9 13.2807C9 14.0838 10.9485 16.2636 13.2623 18.214C19.4731 23.262 27.7542 23.262 33.965 18.214C36.2788 16.2636 38.2273 14.0838 38.2273 13.2807C38.2273 12.4776 36.2788 9.95362 33.965 7.54434C31.6512 5.13506 29.7027 2.3816 29.7027 1.57851C29.7027 -0.601311 27.3888 -0.486584 26.5364 1.69324C26.0493 2.61106 24.8315 3.41415 23.6136 3.41415C22.3958 3.41415 21.178 2.61106 20.6909 1.69324C19.8385 -0.486584 17.5246 -0.601311 17.5246 1.57851ZM30.1898 10.5273C32.2601 13.7396 29.5809 16.4931 24.3443 16.952C17.5246 17.5256 13.7494 13.166 17.7682 9.37998C19.9602 7.31488 28.6066 8.11798 30.1898 10.5273Z" fill="#2BC7BC"/>
<path d="M18.7426 12.5922C18.7426 13.1659 19.3515 13.7395 19.9604 13.7395C20.691 13.7395 21.1782 13.1659 21.1782 12.5922C21.1782 11.9039 20.691 11.445 19.9604 11.445C19.3515 11.445 18.7426 11.9039 18.7426 12.5922Z" fill="#2BC7BC"/>
<path d="M26.0494 12.5922C26.0494 13.1659 26.6583 13.7395 27.2672 13.7395C27.9979 13.7395 28.485 13.1659 28.485 12.5922C28.485 11.9039 27.9979 11.445 27.2672 11.445C26.6583 11.445 26.0494 11.9039 26.0494 12.5922Z" fill="#2BC7BC"/>
<path d="M7.42426 26.7531C7.10626 26.7531 6.82126 26.8101 6.56926 26.9241C6.31726 27.0321 6.10126 27.1941 5.92126 27.4101C5.74726 27.6261 5.61226 27.8871 5.51626 28.1931C5.42626 28.4991 5.38126 28.8441 5.38126 29.2281C5.38126 29.7321 5.45626 30.1701 5.60626 30.5421C5.75626 30.9081 5.98126 31.1901 6.28126 31.3881C6.58126 31.5861 6.95926 31.6851 7.41526 31.6851C7.69126 31.6851 7.95526 31.6611 8.20726 31.6131C8.46526 31.5591 8.72626 31.4901 8.99026 31.4061V32.2431C8.73826 32.3391 8.48026 32.4081 8.21626 32.4501C7.95226 32.4981 7.64626 32.5221 7.29826 32.5221C6.64426 32.5221 6.09826 32.3871 5.66026 32.1171C5.22826 31.8471 4.90426 31.4631 4.68826 30.9651C4.47226 30.4671 4.36426 29.8851 4.36426 29.2191C4.36426 28.7331 4.43026 28.2891 4.56226 27.8871C4.70026 27.4791 4.89826 27.1281 5.15626 26.8341C5.41426 26.5401 5.73226 26.3151 6.11026 26.1591C6.49426 25.9971 6.93526 25.9161 7.43326 25.9161C7.75726 25.9161 8.07526 25.9521 8.38726 26.0241C8.69926 26.0901 8.98126 26.1861 9.23326 26.3121L8.87326 27.1221C8.66326 27.0261 8.43526 26.9421 8.18926 26.8701C7.94926 26.7921 7.69426 26.7531 7.42426 26.7531ZM14.5516 30.0021C14.5516 30.4041 14.4976 30.7611 14.3896 31.0731C14.2816 31.3851 14.1286 31.6491 13.9306 31.8651C13.7326 32.0811 13.4926 32.2461 13.2106 32.3601C12.9286 32.4681 12.6106 32.5221 12.2566 32.5221C11.9326 32.5221 11.6326 32.4681 11.3566 32.3601C11.0806 32.2461 10.8406 32.0811 10.6366 31.8651C10.4386 31.6491 10.2826 31.3851 10.1686 31.0731C10.0546 30.7611 9.99757 30.4011 9.99757 29.9931C9.99757 29.4591 10.0876 29.0061 10.2676 28.6341C10.4536 28.2621 10.7176 27.9801 11.0596 27.7881C11.4076 27.5901 11.8156 27.4911 12.2836 27.4911C12.7276 27.4911 13.1176 27.5901 13.4536 27.7881C13.7956 27.9801 14.0626 28.2621 14.2546 28.6341C14.4526 29.0061 14.5516 29.4621 14.5516 30.0021ZM10.9786 30.0021C10.9786 30.3621 11.0236 30.6741 11.1136 30.9381C11.2036 31.1961 11.3446 31.3941 11.5366 31.5321C11.7286 31.6701 11.9746 31.7391 12.2746 31.7391C12.5746 31.7391 12.8206 31.6701 13.0126 31.5321C13.2046 31.3941 13.3456 31.1961 13.4356 30.9381C13.5256 30.6741 13.5706 30.3621 13.5706 30.0021C13.5706 29.6301 13.5226 29.3181 13.4266 29.0661C13.3366 28.8141 13.1956 28.6221 13.0036 28.4901C12.8176 28.3521 12.5716 28.2831 12.2656 28.2831C11.8156 28.2831 11.4886 28.4331 11.2846 28.7331C11.0806 29.0331 10.9786 29.4561 10.9786 30.0021ZM18.1649 27.4911C18.2489 27.4911 18.3419 27.4971 18.4439 27.5091C18.5459 27.5151 18.6299 27.5241 18.6959 27.5361L18.5969 28.4271C18.5309 28.4091 18.4529 28.3941 18.3629 28.3821C18.2729 28.3701 18.1889 28.3641 18.1109 28.3641C17.9309 28.3641 17.7569 28.4001 17.5889 28.4721C17.4269 28.5381 17.2799 28.6371 17.1479 28.7691C17.0159 28.8951 16.9109 29.0511 16.8329 29.2371C16.7609 29.4231 16.7249 29.6361 16.7249 29.8761V32.4321H15.7709V27.5811H16.5269L16.6529 28.4451H16.6889C16.7909 28.2711 16.9139 28.1121 17.0579 27.9681C17.2019 27.8241 17.3669 27.7101 17.5529 27.6261C17.7389 27.5361 17.9429 27.4911 18.1649 27.4911ZM21.3364 27.4911C21.7624 27.4911 22.1284 27.5811 22.4344 27.7611C22.7404 27.9351 22.9744 28.1871 23.1364 28.5171C23.3044 28.8471 23.3884 29.2371 23.3884 29.6871V30.2091H20.1304C20.1424 30.7071 20.2714 31.0881 20.5174 31.3521C20.7694 31.6161 21.1204 31.7481 21.5704 31.7481C21.8824 31.7481 22.1584 31.7211 22.3984 31.6671C22.6444 31.6071 22.8964 31.5201 23.1544 31.4061V32.1981C22.9144 32.3061 22.6684 32.3871 22.4164 32.4411C22.1704 32.4951 21.8764 32.5221 21.5344 32.5221C21.0664 32.5221 20.6524 32.4291 20.2924 32.2431C19.9324 32.0571 19.6504 31.7811 19.4464 31.4151C19.2484 31.0431 19.1494 30.5871 19.1494 30.0471C19.1494 29.5011 19.2394 29.0391 19.4194 28.6611C19.6054 28.2831 19.8604 27.9951 20.1844 27.7971C20.5144 27.5931 20.8984 27.4911 21.3364 27.4911ZM21.3364 28.2291C20.9944 28.2291 20.7184 28.3401 20.5084 28.5621C20.3044 28.7841 20.1844 29.0991 20.1484 29.5071H22.4344C22.4344 29.2551 22.3954 29.0331 22.3174 28.8411C22.2394 28.6491 22.1194 28.4991 21.9574 28.3911C21.7954 28.2831 21.5884 28.2291 21.3364 28.2291ZM26.3348 31.7481C26.4608 31.7481 26.5898 31.7361 26.7218 31.7121C26.8538 31.6881 26.9678 31.6611 27.0638 31.6311V32.3511C26.9618 32.3991 26.8238 32.4381 26.6498 32.4681C26.4758 32.5041 26.3018 32.5221 26.1278 32.5221C25.8638 32.5221 25.6208 32.4771 25.3988 32.3871C25.1828 32.2971 25.0088 32.1411 24.8768 31.9191C24.7448 31.6971 24.6788 31.3881 24.6788 30.9921V28.3101H24.0038V27.8781L24.7148 27.5181L25.0478 26.4921H25.6328V27.5811H27.0188V28.3101H25.6328V30.9741C25.6328 31.2381 25.6958 31.4331 25.8218 31.5591C25.9538 31.6851 26.1248 31.7481 26.3348 31.7481ZM31.346 27.2391C31.346 27.4371 31.34 27.6261 31.328 27.8061C31.322 27.9801 31.313 28.1181 31.301 28.2201H31.346C31.484 28.0161 31.67 27.8451 31.904 27.7071C32.138 27.5691 32.441 27.5001 32.813 27.5001C33.395 27.5001 33.863 27.7101 34.217 28.1301C34.577 28.5501 34.757 29.1741 34.757 30.0021C34.757 30.5601 34.676 31.0251 34.514 31.3971C34.352 31.7691 34.124 32.0511 33.83 32.2431C33.536 32.4291 33.194 32.5221 32.804 32.5221C32.426 32.5221 32.123 32.4561 31.895 32.3241C31.667 32.1861 31.484 32.0241 31.346 31.8381H31.274L31.094 32.4321H30.392V25.5921H31.346V27.2391ZM32.588 28.2741C32.276 28.2741 32.03 28.3341 31.85 28.4541C31.67 28.5741 31.541 28.7571 31.463 29.0031C31.385 29.2491 31.346 29.5611 31.346 29.9391V30.0111C31.346 30.5691 31.436 30.9981 31.616 31.2981C31.796 31.5921 32.126 31.7391 32.606 31.7391C32.99 31.7391 33.281 31.5891 33.479 31.2891C33.677 30.9891 33.776 30.5571 33.776 29.9931C33.776 29.4231 33.677 28.9941 33.479 28.7061C33.281 28.4181 32.984 28.2741 32.588 28.2741ZM40.2581 30.0021C40.2581 30.4041 40.2041 30.7611 40.0961 31.0731C39.9881 31.3851 39.8351 31.6491 39.6371 31.8651C39.4391 32.0811 39.1991 32.2461 38.9171 32.3601C38.6351 32.4681 38.3171 32.5221 37.9631 32.5221C37.6391 32.5221 37.3391 32.4681 37.0631 32.3601C36.7871 32.2461 36.5471 32.0811 36.3431 31.8651C36.1451 31.6491 35.9891 31.3851 35.8751 31.0731C35.7611 30.7611 35.7041 30.4011 35.7041 29.9931C35.7041 29.4591 35.7941 29.0061 35.9741 28.6341C36.1601 28.2621 36.4241 27.9801 36.7661 27.7881C37.1141 27.5901 37.5221 27.4911 37.9901 27.4911C38.4341 27.4911 38.8241 27.5901 39.1601 27.7881C39.5021 27.9801 39.7691 28.2621 39.9611 28.6341C40.1591 29.0061 40.2581 29.4621 40.2581 30.0021ZM36.6851 30.0021C36.6851 30.3621 36.7301 30.6741 36.8201 30.9381C36.9101 31.1961 37.0511 31.3941 37.2431 31.5321C37.4351 31.6701 37.6811 31.7391 37.9811 31.7391C38.2811 31.7391 38.5271 31.6701 38.7191 31.5321C38.9111 31.3941 39.0521 31.1961 39.1421 30.9381C39.2321 30.6741 39.2771 30.3621 39.2771 30.0021C39.2771 29.6301 39.2291 29.3181 39.1331 29.0661C39.0431 28.8141 38.9021 28.6221 38.7101 28.4901C38.5241 28.3521 38.2781 28.2831 37.9721 28.2831C37.5221 28.2831 37.1951 28.4331 36.9911 28.7331C36.7871 29.0331 36.6851 29.4561 36.6851 30.0021ZM43.2234 31.7481C43.3494 31.7481 43.4784 31.7361 43.6104 31.7121C43.7424 31.6881 43.8564 31.6611 43.9524 31.6311V32.3511C43.8504 32.3991 43.7124 32.4381 43.5384 32.4681C43.3644 32.5041 43.1904 32.5221 43.0164 32.5221C42.7524 32.5221 42.5094 32.4771 42.2874 32.3871C42.0714 32.2971 41.8974 32.1411 41.7654 31.9191C41.6334 31.6971 41.5674 31.3881 41.5674 30.9921V28.3101H40.8924V27.8781L41.6034 27.5181L41.9364 26.4921H42.5214V27.5811H43.9074V28.3101H42.5214V30.9741C42.5214 31.2381 42.5844 31.4331 42.7104 31.5591C42.8424 31.6851 43.0134 31.7481 43.2234 31.7481Z" fill="#2BC7BC"/>
</svg>
