<svg width="91" height="34" viewBox="0 0 91 34" fill="none" xmlns="http://www.w3.org/2000/svg">
<path d="M9.91711 16.785C9.91711 14.405 10.4538 12.27 11.5271 10.38C12.6004 8.46667 14.0588 6.97333 15.9021 5.9C17.7688 4.82667 19.8338 4.29 22.0971 4.29C24.7571 4.29 27.0788 4.93167 29.0621 6.215C31.0454 7.49833 32.4921 9.31833 33.4021 11.675H29.5871C28.9104 10.205 27.9304 9.07333 26.6471 8.28C25.3871 7.48667 23.8704 7.09 22.0971 7.09C20.3938 7.09 18.8654 7.48667 17.5121 8.28C16.1588 9.07333 15.0971 10.205 14.3271 11.675C13.5571 13.1217 13.1721 14.825 13.1721 16.785C13.1721 18.7217 13.5571 20.425 14.3271 21.895C15.0971 23.3417 16.1588 24.4617 17.5121 25.255C18.8654 26.0483 20.3938 26.445 22.0971 26.445C23.8704 26.445 25.3871 26.06 26.6471 25.29C27.9304 24.4967 28.9104 23.365 29.5871 21.895H33.4021C32.4921 24.2283 31.0454 26.0367 29.0621 27.32C27.0788 28.58 24.7571 29.21 22.0971 29.21C19.8338 29.21 17.7688 28.685 15.9021 27.635C14.0588 26.5617 12.6004 25.08 11.5271 23.19C10.4538 21.3 9.91711 19.165 9.91711 16.785ZM43.3482 29.225C42.0649 29.225 40.8982 28.9333 39.8482 28.35C38.8149 27.7667 37.9982 26.9417 37.3982 25.875C36.8149 24.7917 36.5232 23.5417 36.5232 22.125C36.5232 20.725 36.8232 19.4917 37.4232 18.425C38.0399 17.3417 38.8732 16.5167 39.9232 15.95C40.9732 15.3667 42.1482 15.075 43.4482 15.075C44.7482 15.075 45.9232 15.3667 46.9732 15.95C48.0232 16.5167 48.8482 17.3333 49.4482 18.4C50.0649 19.4667 50.3732 20.7083 50.3732 22.125C50.3732 23.5417 50.0566 24.7917 49.4232 25.875C48.8066 26.9417 47.9649 27.7667 46.8982 28.35C45.8316 28.9333 44.6482 29.225 43.3482 29.225ZM43.3482 27.225C44.1649 27.225 44.9316 27.0333 45.6482 26.65C46.3649 26.2667 46.9399 25.6917 47.3732 24.925C47.8232 24.1583 48.0482 23.225 48.0482 22.125C48.0482 21.025 47.8316 20.0917 47.3982 19.325C46.9649 18.5583 46.3982 17.9917 45.6982 17.625C44.9982 17.2417 44.2399 17.05 43.4232 17.05C42.5899 17.05 41.8232 17.2417 41.1232 17.625C40.4399 17.9917 39.8899 18.5583 39.4732 19.325C39.0566 20.0917 38.8482 21.025 38.8482 22.125C38.8482 23.2417 39.0482 24.1833 39.4482 24.95C39.8649 25.7167 40.4149 26.2917 41.0982 26.675C41.7816 27.0417 42.5316 27.225 43.3482 27.225ZM55.6395 17.525C56.0395 16.7417 56.6061 16.1333 57.3395 15.7C58.0895 15.2667 58.9978 15.05 60.0645 15.05V17.4H59.4645C56.9145 17.4 55.6395 18.7833 55.6395 21.55V29H53.3645V15.3H55.6395V17.525ZM75.1906 21.625C75.1906 22.0583 75.1656 22.5167 75.1156 23H64.1656C64.249 24.35 64.7073 25.4083 65.5406 26.175C66.3906 26.925 67.4156 27.3 68.6156 27.3C69.599 27.3 70.4156 27.075 71.0656 26.625C71.7323 26.1583 72.199 25.5417 72.4656 24.775H74.9156C74.549 26.0917 73.8156 27.1667 72.7156 28C71.6156 28.8167 70.249 29.225 68.6156 29.225C67.3156 29.225 66.149 28.9333 65.1156 28.35C64.099 27.7667 63.299 26.9417 62.7156 25.875C62.1323 24.7917 61.8406 23.5417 61.8406 22.125C61.8406 20.7083 62.124 19.4667 62.6906 18.4C63.2573 17.3333 64.049 16.5167 65.0656 15.95C66.099 15.3667 67.2823 15.075 68.6156 15.075C69.9156 15.075 71.0656 15.3583 72.0656 15.925C73.0656 16.4917 73.8323 17.275 74.3656 18.275C74.9156 19.2583 75.1906 20.375 75.1906 21.625ZM72.8406 21.15C72.8406 20.2833 72.649 19.5417 72.2656 18.925C71.8823 18.2917 71.3573 17.8167 70.6906 17.5C70.0406 17.1667 69.3156 17 68.5156 17C67.3656 17 66.3823 17.3667 65.5656 18.1C64.7656 18.8333 64.3073 19.85 64.1906 21.15H72.8406ZM80.9686 17.175V25.25C80.9686 25.9167 81.1102 26.3917 81.3936 26.675C81.6769 26.9417 82.1686 27.075 82.8686 27.075H84.5436V29H82.4936C81.2269 29 80.2769 28.7083 79.6436 28.125C79.0102 27.5417 78.6936 26.5833 78.6936 25.25V17.175H76.9186V15.3H78.6936V11.85H80.9686V15.3H84.5436V17.175H80.9686Z" fill="#60666C"/>
<mask id="path-2-outside-1_2192_1788" maskUnits="userSpaceOnUse" x="0" y="10.4404" width="34" height="13" fill="black">
<rect fill="white" y="10.4404" width="34" height="13"/>
<path d="M7.25235 22.3154C6.32235 21.2054 5.36235 20.2454 4.37235 19.4354C3.38235 18.6254 2.36235 17.9654 1.31235 17.4554V16.6454C3.38235 15.5954 5.36235 13.9754 7.25235 11.7854H8.82735C8.34735 12.8054 7.86735 13.7054 7.38735 14.4854C6.90735 15.2354 6.44235 15.8654 5.99235 16.3754V17.7254C6.44235 18.2054 6.90735 18.8354 7.38735 19.6154C7.86735 20.3654 8.34735 21.2654 8.82735 22.3154H7.25235ZM5.76735 17.9954V16.1054H32.4524V17.9954H5.76735Z"/>
</mask>
<path d="M7.25235 22.3154C6.32235 21.2054 5.36235 20.2454 4.37235 19.4354C3.38235 18.6254 2.36235 17.9654 1.31235 17.4554V16.6454C3.38235 15.5954 5.36235 13.9754 7.25235 11.7854H8.82735C8.34735 12.8054 7.86735 13.7054 7.38735 14.4854C6.90735 15.2354 6.44235 15.8654 5.99235 16.3754V17.7254C6.44235 18.2054 6.90735 18.8354 7.38735 19.6154C7.86735 20.3654 8.34735 21.2654 8.82735 22.3154H7.25235ZM5.76735 17.9954V16.1054H32.4524V17.9954H5.76735Z" fill="#F5C242"/>
<path d="M7.25235 22.3154L6.48583 22.9576L6.78559 23.3154H7.25235V22.3154ZM4.37235 19.4354L3.73912 20.2094H3.73912L4.37235 19.4354ZM1.31235 17.4554H0.312353V18.0814L0.87545 18.3549L1.31235 17.4554ZM1.31235 16.6454L0.859977 15.7536L0.312353 16.0314V16.6454H1.31235ZM7.25235 11.7854V10.7854H6.79446L6.4953 11.1321L7.25235 11.7854ZM8.82735 11.7854L9.73217 12.2112L10.4031 10.7854H8.82735V11.7854ZM7.38735 14.4854L8.22962 15.0245L8.23438 15.017L8.23901 15.0095L7.38735 14.4854ZM5.99235 16.3754L5.24252 15.7138L4.99235 15.9973V16.3754H5.99235ZM5.99235 17.7254H4.99235V18.1209L5.26282 18.4094L5.99235 17.7254ZM7.38735 19.6154L6.53569 20.1395L6.54032 20.147L6.54508 20.1545L7.38735 19.6154ZM8.82735 22.3154V23.3154H10.384L9.73683 21.8997L8.82735 22.3154ZM5.76735 17.9954H4.76735V18.9954H5.76735V17.9954ZM5.76735 16.1054V15.1054H4.76735V16.1054H5.76735ZM32.4524 16.1054H33.4524V15.1054H32.4524V16.1054ZM32.4524 17.9954V18.9954H33.4524V17.9954H32.4524ZM8.01887 21.6732C7.05384 20.5214 6.0499 19.5159 5.00559 18.6615L3.73912 20.2094C4.67481 20.975 5.59087 21.8895 6.48583 22.9576L8.01887 21.6732ZM5.00559 18.6615C3.96096 17.8068 2.8757 17.1031 1.74926 16.5559L0.87545 18.3549C1.84901 18.8278 2.80374 19.4441 3.73912 20.2094L5.00559 18.6615ZM2.31235 17.4554V16.6454H0.312353V17.4554H2.31235ZM1.76473 17.5373C3.97561 16.4158 6.05459 14.7039 8.00941 12.4388L6.4953 11.1321C4.67012 13.247 2.7891 14.7751 0.859977 15.7536L1.76473 17.5373ZM7.25235 12.7854H8.82735V10.7854H7.25235V12.7854ZM7.92253 11.3596C7.45495 12.3533 6.99231 13.2193 6.53569 13.9613L8.23901 15.0095C8.74239 14.1915 9.23976 13.2576 9.73217 12.2112L7.92253 11.3596ZM6.54508 13.9464C6.08478 14.6656 5.6501 15.2519 5.24252 15.7138L6.74219 17.0371C7.23461 16.479 7.72993 15.8053 8.22962 15.0245L6.54508 13.9464ZM4.99235 16.3754V17.7254H6.99235V16.3754H4.99235ZM5.26282 18.4094C5.6529 18.8255 6.07834 19.3963 6.53569 20.1395L8.23901 19.0913C7.73637 18.2745 7.2318 17.5854 6.72189 17.0415L5.26282 18.4094ZM6.54508 20.1545C6.99369 20.8554 7.45199 21.712 7.91788 22.7312L9.73683 21.8997C9.24272 20.8188 8.74101 19.8754 8.22962 19.0764L6.54508 20.1545ZM8.82735 21.3154H7.25235V23.3154H8.82735V21.3154ZM6.76735 17.9954V16.1054H4.76735V17.9954H6.76735ZM5.76735 17.1054H32.4524V15.1054H5.76735V17.1054ZM31.4524 16.1054V17.9954H33.4524V16.1054H31.4524ZM32.4524 16.9954H5.76735V18.9954H32.4524V16.9954Z" fill="white" mask="url(#path-2-outside-1_2192_1788)"/>
</svg>
