<svg width="455" height="140" viewBox="0 0 455 140" fill="none" xmlns="http://www.w3.org/2000/svg">
<path d="M172.509 72.172C173.153 72.536 173.853 72.97 174.609 73.474C175.379 73.964 176.156 74.475 176.94 75.007C177.724 75.539 178.459 76.057 179.145 76.561C179.845 77.065 180.433 77.513 180.909 77.905L178.914 80.278C178.452 79.858 177.878 79.375 177.192 78.829C176.52 78.269 175.792 77.702 175.008 77.128C174.224 76.54 173.447 75.98 172.677 75.448C171.921 74.916 171.242 74.461 170.64 74.083L172.509 72.172ZM182.379 68.602C182.253 68.798 182.127 69.029 182.001 69.295C181.875 69.561 181.77 69.827 181.686 70.093C181.476 70.737 181.189 71.458 180.825 72.256C180.475 73.04 180.055 73.845 179.565 74.671C179.075 75.483 178.515 76.281 177.885 77.065C176.891 78.297 175.694 79.466 174.294 80.572C172.908 81.678 171.207 82.616 169.191 83.386L166.755 81.265C168.225 80.817 169.499 80.285 170.577 79.669C171.655 79.053 172.586 78.395 173.37 77.695C174.168 76.995 174.861 76.295 175.449 75.595C175.925 75.049 176.373 74.44 176.793 73.768C177.227 73.082 177.598 72.403 177.906 71.731C178.228 71.045 178.452 70.436 178.578 69.904H171.48L172.446 67.51H178.41C178.746 67.51 179.075 67.489 179.397 67.447C179.733 67.405 180.013 67.349 180.237 67.279L182.379 68.602ZM175.449 65.368C175.197 65.732 174.945 66.124 174.693 66.544C174.455 66.964 174.273 67.286 174.147 67.51C173.671 68.35 173.069 69.246 172.341 70.198C171.613 71.136 170.794 72.053 169.884 72.949C168.988 73.845 168.036 74.643 167.028 75.343L164.76 73.6C165.992 72.83 167.035 72.025 167.889 71.185C168.757 70.331 169.478 69.512 170.052 68.728C170.626 67.93 171.088 67.223 171.438 66.607C171.606 66.355 171.781 66.019 171.963 65.599C172.159 65.165 172.306 64.773 172.404 64.423L175.449 65.368ZM202.014 67.762C201.93 67.888 201.804 68.084 201.636 68.35C201.482 68.616 201.363 68.861 201.279 69.085C200.985 69.743 200.621 70.478 200.187 71.29C199.767 72.102 199.284 72.921 198.738 73.747C198.206 74.559 197.639 75.322 197.037 76.036C196.253 76.918 195.385 77.793 194.433 78.661C193.495 79.515 192.501 80.306 191.451 81.034C190.415 81.748 189.351 82.364 188.259 82.882L186.096 80.614C187.23 80.18 188.329 79.634 189.393 78.976C190.457 78.318 191.444 77.604 192.354 76.834C193.264 76.064 194.048 75.315 194.706 74.587C195.168 74.055 195.602 73.488 196.008 72.886C196.428 72.284 196.799 71.689 197.121 71.101C197.443 70.499 197.681 69.946 197.835 69.442C197.695 69.442 197.443 69.442 197.079 69.442C196.715 69.442 196.288 69.442 195.798 69.442C195.322 69.442 194.818 69.442 194.286 69.442C193.754 69.442 193.243 69.442 192.753 69.442C192.277 69.442 191.857 69.442 191.493 69.442C191.129 69.442 190.87 69.442 190.716 69.442C190.422 69.442 190.114 69.456 189.792 69.484C189.47 69.498 189.162 69.519 188.868 69.547C188.588 69.561 188.371 69.575 188.217 69.589V66.607C188.427 66.621 188.686 66.642 188.994 66.67C189.302 66.698 189.61 66.719 189.918 66.733C190.24 66.747 190.506 66.754 190.716 66.754C190.898 66.754 191.185 66.754 191.577 66.754C191.969 66.754 192.417 66.754 192.921 66.754C193.425 66.754 193.943 66.754 194.475 66.754C195.021 66.754 195.539 66.754 196.029 66.754C196.533 66.754 196.967 66.754 197.331 66.754C197.695 66.754 197.961 66.754 198.129 66.754C198.591 66.754 199.011 66.726 199.389 66.67C199.781 66.614 200.082 66.551 200.292 66.481L202.014 67.762ZM197.31 74.293C197.856 74.727 198.437 75.231 199.053 75.805C199.669 76.379 200.278 76.974 200.88 77.59C201.482 78.206 202.035 78.801 202.539 79.375C203.057 79.935 203.491 80.425 203.841 80.845L201.447 82.924C200.929 82.21 200.334 81.468 199.662 80.698C199.004 79.928 198.304 79.165 197.562 78.409C196.834 77.639 196.092 76.911 195.336 76.225L197.31 74.293ZM224.379 68.938C224.267 69.134 224.148 69.372 224.022 69.652C223.896 69.918 223.784 70.184 223.686 70.45C223.504 71.066 223.245 71.773 222.909 72.571C222.587 73.355 222.181 74.174 221.691 75.028C221.215 75.868 220.662 76.68 220.032 77.464C219.024 78.668 217.848 79.76 216.504 80.74C215.174 81.72 213.522 82.602 211.548 83.386L209.07 81.16C210.498 80.74 211.73 80.257 212.766 79.711C213.802 79.165 214.705 78.584 215.475 77.968C216.245 77.338 216.931 76.673 217.533 75.973C218.023 75.427 218.471 74.811 218.877 74.125C219.283 73.425 219.633 72.732 219.927 72.046C220.221 71.36 220.417 70.758 220.515 70.24H213.438L214.404 67.867C214.6 67.867 214.901 67.867 215.307 67.867C215.727 67.867 216.196 67.867 216.714 67.867C217.246 67.867 217.764 67.867 218.268 67.867C218.786 67.867 219.234 67.867 219.612 67.867C220.004 67.867 220.27 67.867 220.41 67.867C220.732 67.867 221.054 67.846 221.376 67.804C221.712 67.762 221.999 67.699 222.237 67.615L224.379 68.938ZM217.533 65.62C217.281 65.984 217.036 66.376 216.798 66.796C216.56 67.216 216.378 67.538 216.252 67.762C215.776 68.602 215.188 69.477 214.488 70.387C213.802 71.283 213.018 72.158 212.136 73.012C211.254 73.852 210.316 74.622 209.322 75.322L206.949 73.579C207.873 73.005 208.685 72.417 209.385 71.815C210.099 71.213 210.715 70.618 211.233 70.03C211.751 69.428 212.192 68.854 212.556 68.308C212.934 67.748 213.256 67.251 213.522 66.817C213.69 66.551 213.865 66.208 214.047 65.788C214.229 65.354 214.369 64.962 214.467 64.612L217.533 65.62ZM231.498 70.114H242.397V72.403H231.498V70.114ZM227.592 73.915H246.408V76.267H227.592V73.915ZM232.674 75.805H235.404C235.306 76.771 235.145 77.674 234.921 78.514C234.697 79.34 234.34 80.096 233.85 80.782C233.374 81.454 232.702 82.056 231.834 82.588C230.966 83.12 229.846 83.568 228.474 83.932C228.39 83.708 228.264 83.456 228.096 83.176C227.942 82.896 227.767 82.616 227.571 82.336C227.375 82.07 227.186 81.853 227.004 81.685C228.208 81.419 229.167 81.097 229.881 80.719C230.609 80.341 231.155 79.914 231.519 79.438C231.897 78.948 232.163 78.402 232.317 77.8C232.485 77.184 232.604 76.519 232.674 75.805ZM238.092 75.385H240.633V80.509C240.633 80.845 240.682 81.062 240.78 81.16C240.892 81.244 241.137 81.286 241.515 81.286C241.599 81.286 241.732 81.286 241.914 81.286C242.096 81.286 242.299 81.286 242.523 81.286C242.747 81.286 242.957 81.286 243.153 81.286C243.349 81.286 243.503 81.286 243.615 81.286C243.839 81.286 244.007 81.23 244.119 81.118C244.245 81.006 244.329 80.768 244.371 80.404C244.427 80.026 244.469 79.473 244.497 78.745C244.679 78.871 244.903 78.997 245.169 79.123C245.435 79.249 245.708 79.361 245.988 79.459C246.282 79.557 246.541 79.641 246.765 79.711C246.681 80.719 246.534 81.503 246.324 82.063C246.114 82.637 245.813 83.029 245.421 83.239C245.043 83.463 244.518 83.575 243.846 83.575C243.72 83.575 243.531 83.575 243.279 83.575C243.041 83.575 242.775 83.575 242.481 83.575C242.201 83.575 241.935 83.575 241.683 83.575C241.445 83.575 241.263 83.575 241.137 83.575C240.325 83.575 239.695 83.484 239.247 83.302C238.813 83.12 238.512 82.805 238.344 82.357C238.176 81.909 238.092 81.307 238.092 80.551V75.385ZM235.593 64.171H238.281V67.993H235.593V64.171ZM227.97 66.187H246.009V71.185H243.321V68.581H230.532V71.185H227.97V66.187ZM256.782 71.353H259.47V80.95C259.47 81.664 259.365 82.21 259.155 82.588C258.945 82.98 258.581 83.274 258.063 83.47C257.545 83.652 256.908 83.764 256.152 83.806C255.396 83.862 254.514 83.89 253.506 83.89C253.422 83.512 253.275 83.071 253.065 82.567C252.869 82.077 252.673 81.657 252.477 81.307C252.967 81.335 253.464 81.356 253.968 81.37C254.486 81.384 254.941 81.391 255.333 81.391C255.739 81.377 256.019 81.37 256.173 81.37C256.411 81.37 256.572 81.342 256.656 81.286C256.74 81.216 256.782 81.083 256.782 80.887V71.353ZM249.621 65.62H264.279V68.119H249.621V65.62ZM263.334 65.62H264.027L264.615 65.473L266.61 66.922C265.98 67.692 265.266 68.483 264.468 69.295C263.67 70.107 262.83 70.884 261.948 71.626C261.08 72.354 260.219 72.984 259.365 73.516C259.239 73.334 259.071 73.138 258.861 72.928C258.651 72.704 258.434 72.487 258.21 72.277C258 72.053 257.804 71.871 257.622 71.731C258.168 71.381 258.721 70.975 259.281 70.513C259.855 70.051 260.401 69.568 260.919 69.064C261.437 68.56 261.906 68.063 262.326 67.573C262.746 67.083 263.082 66.642 263.334 66.25V65.62ZM277.929 76.603L277.362 69.421L277.257 66.292H280.743L280.638 69.421L280.071 76.603H277.929ZM279 82.189C278.468 82.189 278.027 82.014 277.677 81.664C277.327 81.314 277.152 80.873 277.152 80.341C277.152 79.795 277.327 79.347 277.677 78.997C278.027 78.647 278.468 78.472 279 78.472C279.532 78.472 279.973 78.647 280.323 78.997C280.673 79.347 280.848 79.795 280.848 80.341C280.848 80.873 280.673 81.314 280.323 81.664C279.973 82.014 279.532 82.189 279 82.189Z" fill="#2BC7BC"/>
<path d="M176.855 105.814C176.836 105.898 176.822 105.996 176.813 106.108C176.803 106.211 176.794 106.323 176.785 106.444C176.775 106.565 176.766 106.677 176.757 106.78C176.747 106.995 176.733 107.275 176.715 107.62C176.705 107.965 176.696 108.348 176.687 108.768C176.677 109.179 176.668 109.599 176.659 110.028C176.649 110.448 176.645 110.84 176.645 111.204C176.645 111.568 176.645 111.969 176.645 112.408C176.654 112.837 176.663 113.267 176.673 113.696C176.691 114.116 176.701 114.508 176.701 114.872C176.71 115.227 176.715 115.511 176.715 115.726C176.715 116.155 176.663 116.496 176.561 116.748C176.458 117 176.313 117.177 176.127 117.28C175.949 117.392 175.735 117.448 175.483 117.448C175.212 117.448 174.909 117.383 174.573 117.252C174.237 117.131 173.915 116.963 173.607 116.748C173.308 116.533 173.061 116.286 172.865 116.006C172.669 115.726 172.571 115.432 172.571 115.124C172.571 114.704 172.729 114.293 173.047 113.892C173.373 113.491 173.793 113.117 174.307 112.772C174.829 112.427 175.38 112.147 175.959 111.932C176.593 111.68 177.242 111.493 177.905 111.372C178.567 111.241 179.174 111.176 179.725 111.176C180.406 111.176 181.008 111.293 181.531 111.526C182.063 111.759 182.478 112.086 182.777 112.506C183.085 112.917 183.239 113.402 183.239 113.962C183.239 114.522 183.122 115.017 182.889 115.446C182.665 115.875 182.329 116.235 181.881 116.524C181.442 116.813 180.901 117.037 180.257 117.196C179.949 117.261 179.641 117.303 179.333 117.322C179.034 117.35 178.763 117.373 178.521 117.392L178.129 116.258C178.39 116.267 178.661 116.267 178.941 116.258C179.23 116.249 179.505 116.216 179.767 116.16C180.177 116.085 180.56 115.959 180.915 115.782C181.279 115.595 181.568 115.353 181.783 115.054C182.007 114.755 182.119 114.396 182.119 113.976C182.119 113.575 182.011 113.239 181.797 112.968C181.582 112.697 181.293 112.492 180.929 112.352C180.565 112.212 180.159 112.142 179.711 112.142C179.095 112.142 178.493 112.207 177.905 112.338C177.317 112.469 176.719 112.655 176.113 112.898C175.665 113.066 175.254 113.276 174.881 113.528C174.507 113.771 174.209 114.027 173.985 114.298C173.77 114.569 173.663 114.825 173.663 115.068C173.663 115.227 173.714 115.381 173.817 115.53C173.929 115.67 174.064 115.796 174.223 115.908C174.381 116.02 174.549 116.109 174.727 116.174C174.904 116.23 175.058 116.258 175.189 116.258C175.347 116.258 175.469 116.202 175.553 116.09C175.646 115.978 175.693 115.805 175.693 115.572C175.693 115.301 175.688 114.928 175.679 114.452C175.669 113.967 175.66 113.444 175.651 112.884C175.641 112.315 175.637 111.773 175.637 111.26C175.637 110.859 175.637 110.429 175.637 109.972C175.646 109.515 175.651 109.071 175.651 108.642C175.66 108.213 175.665 107.835 175.665 107.508C175.674 107.181 175.679 106.948 175.679 106.808C175.679 106.715 175.674 106.607 175.665 106.486C175.665 106.355 175.66 106.229 175.651 106.108C175.641 105.987 175.627 105.889 175.609 105.814H176.855ZM181.195 107.368C181.531 107.545 181.904 107.76 182.315 108.012C182.725 108.255 183.117 108.502 183.491 108.754C183.873 109.006 184.177 109.225 184.401 109.412L183.827 110.308C183.659 110.14 183.444 109.963 183.183 109.776C182.921 109.58 182.641 109.389 182.343 109.202C182.044 109.006 181.75 108.824 181.461 108.656C181.171 108.479 180.915 108.329 180.691 108.208L181.195 107.368ZM172.795 108.334C173.177 108.381 173.504 108.413 173.775 108.432C174.055 108.441 174.325 108.446 174.587 108.446C174.932 108.446 175.319 108.427 175.749 108.39C176.178 108.353 176.621 108.306 177.079 108.25C177.536 108.185 177.979 108.11 178.409 108.026C178.847 107.933 179.239 107.835 179.585 107.732L179.613 108.824C179.249 108.908 178.843 108.992 178.395 109.076C177.947 109.151 177.489 109.216 177.023 109.272C176.565 109.328 176.127 109.375 175.707 109.412C175.287 109.449 174.923 109.468 174.615 109.468C174.213 109.468 173.873 109.463 173.593 109.454C173.322 109.445 173.065 109.426 172.823 109.398L172.795 108.334ZM185.521 113.234C185.838 113.085 186.207 112.903 186.627 112.688C187.056 112.464 187.499 112.226 187.957 111.974L188.209 112.772C187.817 113.024 187.42 113.267 187.019 113.5C186.627 113.724 186.249 113.943 185.885 114.158L185.521 113.234ZM186.515 107.774C186.739 108.213 186.935 108.684 187.103 109.188C187.28 109.692 187.392 110.121 187.439 110.476L186.599 110.854C186.571 110.602 186.515 110.322 186.431 110.014C186.347 109.697 186.244 109.37 186.123 109.034C186.001 108.698 185.871 108.381 185.731 108.082L186.515 107.774ZM193.347 105.24V107.06H192.255V105.24H193.347ZM188.657 111.036C188.657 111.577 188.629 112.161 188.573 112.786C188.526 113.411 188.433 114.046 188.293 114.69C188.162 115.325 187.961 115.941 187.691 116.538C187.429 117.135 187.084 117.672 186.655 118.148C186.608 118.073 186.538 117.989 186.445 117.896C186.351 117.812 186.258 117.728 186.165 117.644C186.071 117.56 185.987 117.499 185.913 117.462C186.314 117.005 186.631 116.51 186.865 115.978C187.098 115.446 187.271 114.895 187.383 114.326C187.504 113.757 187.583 113.192 187.621 112.632C187.658 112.072 187.677 111.54 187.677 111.036V106.5H188.657V111.036ZM198.373 106.5V107.41H188.195V106.5H198.373ZM197.253 109.062L197.421 109.034L198.135 109.188C198.004 109.599 197.855 110.019 197.687 110.448C197.528 110.877 197.374 111.237 197.225 111.526L196.357 111.344C196.478 111.073 196.604 110.742 196.735 110.35C196.875 109.949 196.996 109.571 197.099 109.216V109.062H197.253ZM190.911 111.736C190.911 112.221 190.883 112.744 190.827 113.304C190.78 113.855 190.687 114.419 190.547 114.998C190.416 115.577 190.225 116.137 189.973 116.678C189.721 117.219 189.394 117.719 188.993 118.176C188.946 118.111 188.871 118.036 188.769 117.952C188.675 117.877 188.577 117.807 188.475 117.742C188.372 117.677 188.283 117.625 188.209 117.588C188.601 117.159 188.909 116.697 189.133 116.202C189.366 115.707 189.539 115.199 189.651 114.676C189.772 114.153 189.851 113.645 189.889 113.15C189.926 112.646 189.945 112.17 189.945 111.722V109.062H190.911V111.736ZM192.213 112.366C192.679 113.663 193.431 114.727 194.467 115.558C195.512 116.379 196.819 116.944 198.387 117.252C198.284 117.355 198.167 117.495 198.037 117.672C197.915 117.849 197.822 118.008 197.757 118.148C196.674 117.887 195.713 117.509 194.873 117.014C194.033 116.519 193.319 115.908 192.731 115.18C192.143 114.443 191.667 113.584 191.303 112.604L192.213 112.366ZM196.413 111.876L196.595 111.834L197.253 112.086C197.001 112.935 196.66 113.696 196.231 114.368C195.801 115.031 195.297 115.605 194.719 116.09C194.149 116.575 193.524 116.986 192.843 117.322C192.171 117.658 191.461 117.933 190.715 118.148C190.668 118.017 190.589 117.863 190.477 117.686C190.374 117.518 190.276 117.383 190.183 117.28C190.864 117.112 191.522 116.883 192.157 116.594C192.791 116.295 193.375 115.931 193.907 115.502C194.448 115.063 194.915 114.559 195.307 113.99C195.708 113.411 196.016 112.763 196.231 112.044V111.876H196.413ZM194.341 107.76V112.352H193.389V107.76H194.341ZM197.211 109.062V109.972H190.421V109.062H197.211ZM196.483 111.876V112.758H190.421V111.876H196.483ZM212.737 115.936C212.363 116.309 211.962 116.599 211.533 116.804C211.103 117 210.646 117.098 210.161 117.098C209.703 117.098 209.33 116.949 209.041 116.65C208.751 116.351 208.607 115.913 208.607 115.334C208.607 114.942 208.635 114.517 208.691 114.06C208.747 113.603 208.807 113.136 208.873 112.66C208.938 112.175 208.999 111.717 209.055 111.288C209.111 110.849 209.139 110.457 209.139 110.112C209.139 109.711 209.041 109.421 208.845 109.244C208.649 109.057 208.369 108.964 208.005 108.964C207.678 108.964 207.314 109.062 206.913 109.258C206.511 109.445 206.101 109.701 205.681 110.028C205.261 110.345 204.85 110.705 204.449 111.106C204.047 111.498 203.679 111.89 203.343 112.282L203.371 110.896C203.548 110.709 203.772 110.49 204.043 110.238C204.323 109.986 204.631 109.725 204.967 109.454C205.312 109.183 205.676 108.931 206.059 108.698C206.441 108.465 206.819 108.278 207.193 108.138C207.575 107.998 207.939 107.928 208.285 107.928C208.723 107.928 209.087 108.007 209.377 108.166C209.666 108.315 209.881 108.535 210.021 108.824C210.161 109.104 210.231 109.431 210.231 109.804C210.231 110.149 210.203 110.551 210.147 111.008C210.1 111.456 210.039 111.923 209.965 112.408C209.899 112.893 209.839 113.365 209.783 113.822C209.736 114.279 209.713 114.685 209.713 115.04C209.713 115.273 209.769 115.474 209.881 115.642C210.002 115.81 210.189 115.894 210.441 115.894C210.777 115.894 211.122 115.796 211.477 115.6C211.841 115.395 212.2 115.105 212.555 114.732L212.737 115.936ZM203.329 109.244C203.217 109.253 203.044 109.277 202.811 109.314C202.587 109.342 202.33 109.375 202.041 109.412C201.751 109.449 201.457 109.491 201.159 109.538C200.86 109.575 200.58 109.613 200.319 109.65L200.207 108.502C200.356 108.511 200.501 108.516 200.641 108.516C200.79 108.507 200.949 108.497 201.117 108.488C201.313 108.479 201.551 108.46 201.831 108.432C202.12 108.395 202.419 108.357 202.727 108.32C203.044 108.273 203.338 108.227 203.609 108.18C203.889 108.124 204.108 108.068 204.267 108.012L204.673 108.502C204.589 108.614 204.495 108.754 204.393 108.922C204.29 109.081 204.187 109.244 204.085 109.412C203.982 109.58 203.893 109.729 203.819 109.86L203.385 111.764C203.226 112.016 203.03 112.315 202.797 112.66C202.563 113.005 202.316 113.369 202.055 113.752C201.803 114.125 201.546 114.499 201.285 114.872C201.023 115.236 200.785 115.572 200.571 115.88L199.857 114.914C200.034 114.699 200.239 114.438 200.473 114.13C200.715 113.813 200.967 113.472 201.229 113.108C201.499 112.744 201.761 112.389 202.013 112.044C202.274 111.689 202.503 111.363 202.699 111.064C202.904 110.765 203.058 110.523 203.161 110.336L203.217 109.622L203.329 109.244ZM203.203 106.92C203.203 106.761 203.198 106.593 203.189 106.416C203.189 106.239 203.175 106.061 203.147 105.884L204.463 105.926C204.425 106.113 204.379 106.407 204.323 106.808C204.267 107.2 204.211 107.667 204.155 108.208C204.108 108.749 204.057 109.319 204.001 109.916C203.954 110.513 203.917 111.106 203.889 111.694C203.861 112.273 203.847 112.809 203.847 113.304C203.847 113.724 203.847 114.116 203.847 114.48C203.847 114.835 203.851 115.189 203.861 115.544C203.87 115.889 203.884 116.267 203.903 116.678C203.912 116.799 203.921 116.939 203.931 117.098C203.94 117.257 203.954 117.401 203.973 117.532H202.755C202.773 117.401 202.783 117.257 202.783 117.098C202.792 116.949 202.797 116.818 202.797 116.706C202.806 116.258 202.811 115.861 202.811 115.516C202.811 115.171 202.811 114.816 202.811 114.452C202.82 114.079 202.829 113.635 202.839 113.122C202.839 112.917 202.848 112.637 202.867 112.282C202.885 111.918 202.909 111.521 202.937 111.092C202.965 110.653 202.993 110.21 203.021 109.762C203.049 109.314 203.077 108.894 203.105 108.502C203.133 108.101 203.156 107.76 203.175 107.48C203.193 107.2 203.203 107.013 203.203 106.92ZM218.645 107.004H226.289V107.872H218.645V107.004ZM219.051 108.852H225.967V109.692H219.051V108.852ZM218.351 110.77H226.471V111.666H218.351V110.77ZM224.259 105.226L225.295 105.52C225.127 105.828 224.949 106.136 224.763 106.444C224.585 106.752 224.422 107.018 224.273 107.242L223.447 106.976C223.587 106.733 223.736 106.444 223.895 106.108C224.053 105.772 224.175 105.478 224.259 105.226ZM219.695 105.562L220.535 105.282C220.703 105.534 220.866 105.814 221.025 106.122C221.193 106.421 221.309 106.682 221.375 106.906L220.493 107.256C220.427 107.023 220.32 106.747 220.171 106.43C220.021 106.113 219.863 105.823 219.695 105.562ZM225.505 112.17L226.303 112.744C226.013 113.089 225.691 113.435 225.337 113.78C224.991 114.116 224.674 114.41 224.385 114.662L223.699 114.13C223.895 113.962 224.105 113.766 224.329 113.542C224.553 113.309 224.767 113.071 224.973 112.828C225.187 112.585 225.365 112.366 225.505 112.17ZM218.813 112.702L219.541 112.226C219.811 112.506 220.087 112.819 220.367 113.164C220.647 113.5 220.857 113.799 220.997 114.06L220.227 114.592C220.087 114.331 219.881 114.023 219.611 113.668C219.349 113.304 219.083 112.982 218.813 112.702ZM217.805 116.454C218.253 116.239 218.785 115.964 219.401 115.628C220.026 115.292 220.661 114.947 221.305 114.592L221.585 115.46C221.025 115.787 220.455 116.113 219.877 116.44C219.307 116.767 218.78 117.065 218.295 117.336L217.805 116.454ZM221.907 107.606H222.915V116.93C222.915 117.219 222.882 117.439 222.817 117.588C222.751 117.747 222.63 117.873 222.453 117.966C222.266 118.041 222.014 118.087 221.697 118.106C221.379 118.134 221.006 118.148 220.577 118.148C220.558 118.008 220.521 117.84 220.465 117.644C220.409 117.457 220.343 117.299 220.269 117.168C220.577 117.177 220.866 117.182 221.137 117.182C221.407 117.182 221.589 117.182 221.683 117.182C221.776 117.173 221.837 117.149 221.865 117.112C221.893 117.084 221.907 117.028 221.907 116.944V107.606ZM222.873 112.072C223.097 112.763 223.391 113.411 223.755 114.018C224.119 114.625 224.553 115.157 225.057 115.614C225.561 116.062 226.121 116.417 226.737 116.678C226.662 116.743 226.583 116.827 226.499 116.93C226.415 117.023 226.331 117.121 226.247 117.224C226.172 117.327 226.107 117.425 226.051 117.518C225.435 117.201 224.87 116.781 224.357 116.258C223.853 115.735 223.414 115.133 223.041 114.452C222.667 113.771 222.369 113.038 222.145 112.254L222.873 112.072ZM213.829 108.278H218.379V109.258H213.829V108.278ZM215.789 105.24H216.755V118.106H215.789V105.24ZM215.761 108.866L216.419 109.076C216.307 109.636 216.167 110.215 215.999 110.812C215.84 111.409 215.658 111.997 215.453 112.576C215.247 113.155 215.028 113.691 214.795 114.186C214.561 114.681 214.319 115.105 214.067 115.46C214.02 115.32 213.941 115.166 213.829 114.998C213.717 114.821 213.619 114.671 213.535 114.55C213.768 114.233 213.997 113.855 214.221 113.416C214.445 112.977 214.655 112.501 214.851 111.988C215.047 111.475 215.224 110.952 215.383 110.42C215.541 109.879 215.667 109.361 215.761 108.866ZM216.685 110.056C216.769 110.149 216.89 110.317 217.049 110.56C217.217 110.803 217.394 111.064 217.581 111.344C217.777 111.624 217.954 111.885 218.113 112.128C218.281 112.371 218.393 112.543 218.449 112.646L217.861 113.43C217.786 113.253 217.674 113.029 217.525 112.758C217.385 112.487 217.226 112.203 217.049 111.904C216.881 111.605 216.722 111.33 216.573 111.078C216.423 110.826 216.302 110.63 216.209 110.49L216.685 110.056ZM228.207 107.788C228.468 107.779 228.706 107.769 228.921 107.76C229.145 107.741 229.322 107.727 229.453 107.718C229.677 107.69 229.999 107.657 230.419 107.62C230.848 107.573 231.338 107.527 231.889 107.48C232.439 107.424 233.032 107.368 233.667 107.312C234.301 107.256 234.941 107.2 235.585 107.144C236.098 107.097 236.583 107.06 237.041 107.032C237.498 106.995 237.923 106.967 238.315 106.948C238.707 106.92 239.057 106.901 239.365 106.892V108.012C239.103 108.012 238.805 108.017 238.469 108.026C238.133 108.035 237.801 108.054 237.475 108.082C237.148 108.11 236.863 108.161 236.621 108.236C236.126 108.395 235.678 108.637 235.277 108.964C234.885 109.281 234.549 109.65 234.269 110.07C233.989 110.49 233.774 110.924 233.625 111.372C233.485 111.82 233.415 112.254 233.415 112.674C233.415 113.215 233.508 113.691 233.695 114.102C233.881 114.503 234.133 114.844 234.451 115.124C234.777 115.404 235.146 115.633 235.557 115.81C235.967 115.987 236.401 116.123 236.859 116.216C237.325 116.3 237.787 116.347 238.245 116.356L237.839 117.518C237.316 117.499 236.793 117.425 236.271 117.294C235.748 117.173 235.249 116.995 234.773 116.762C234.297 116.519 233.872 116.216 233.499 115.852C233.125 115.488 232.831 115.063 232.617 114.578C232.402 114.093 232.295 113.537 232.295 112.912C232.295 112.184 232.421 111.512 232.673 110.896C232.934 110.271 233.265 109.725 233.667 109.258C234.068 108.791 234.483 108.432 234.913 108.18C234.614 108.217 234.241 108.259 233.793 108.306C233.354 108.353 232.883 108.404 232.379 108.46C231.875 108.507 231.366 108.563 230.853 108.628C230.349 108.693 229.877 108.759 229.439 108.824C229 108.88 228.631 108.941 228.333 109.006L228.207 107.788ZM237.349 109.734C237.451 109.883 237.573 110.075 237.713 110.308C237.862 110.532 238.007 110.765 238.147 111.008C238.287 111.241 238.403 111.465 238.497 111.68L237.783 112.016C237.624 111.671 237.447 111.33 237.251 110.994C237.055 110.649 236.849 110.331 236.635 110.042L237.349 109.734ZM238.875 109.146C238.987 109.295 239.117 109.482 239.267 109.706C239.416 109.93 239.561 110.163 239.701 110.406C239.85 110.639 239.981 110.863 240.093 111.078L239.365 111.428C239.197 111.083 239.01 110.742 238.805 110.406C238.609 110.07 238.403 109.757 238.189 109.468L238.875 109.146ZM245.861 106.094C245.823 106.327 245.795 106.565 245.777 106.808C245.758 107.041 245.744 107.275 245.735 107.508C245.716 107.9 245.697 108.385 245.679 108.964C245.66 109.543 245.641 110.159 245.623 110.812C245.604 111.456 245.59 112.1 245.581 112.744C245.571 113.388 245.567 113.967 245.567 114.48C245.567 114.993 245.665 115.404 245.861 115.712C246.057 116.02 246.327 116.239 246.673 116.37C247.018 116.501 247.415 116.566 247.863 116.566C248.497 116.566 249.071 116.487 249.585 116.328C250.098 116.16 250.555 115.941 250.957 115.67C251.358 115.39 251.713 115.077 252.021 114.732C252.338 114.387 252.623 114.032 252.875 113.668L253.673 114.62C253.43 114.956 253.131 115.306 252.777 115.67C252.431 116.025 252.021 116.356 251.545 116.664C251.069 116.972 250.518 117.224 249.893 117.42C249.277 117.616 248.586 117.714 247.821 117.714C247.158 117.714 246.57 117.611 246.057 117.406C245.543 117.201 245.142 116.869 244.853 116.412C244.563 115.955 244.419 115.348 244.419 114.592C244.419 114.172 244.423 113.71 244.433 113.206C244.442 112.693 244.456 112.165 244.475 111.624C244.493 111.083 244.507 110.555 244.517 110.042C244.526 109.519 244.535 109.039 244.545 108.6C244.554 108.161 244.559 107.797 244.559 107.508C244.559 107.247 244.549 106.995 244.531 106.752C244.512 106.509 244.484 106.285 244.447 106.08L245.861 106.094ZM261.303 105.982C261.256 106.141 261.209 106.332 261.163 106.556C261.116 106.78 261.079 106.962 261.051 107.102C260.985 107.438 260.906 107.83 260.813 108.278C260.729 108.717 260.631 109.179 260.519 109.664C260.416 110.149 260.299 110.625 260.169 111.092C260.047 111.587 259.898 112.128 259.721 112.716C259.543 113.295 259.357 113.878 259.161 114.466C258.965 115.054 258.764 115.609 258.559 116.132C258.353 116.655 258.162 117.112 257.985 117.504L256.753 117.084C256.967 116.72 257.182 116.286 257.397 115.782C257.621 115.269 257.835 114.723 258.041 114.144C258.255 113.565 258.451 112.991 258.629 112.422C258.815 111.843 258.974 111.311 259.105 110.826C259.198 110.499 259.287 110.154 259.371 109.79C259.455 109.426 259.534 109.071 259.609 108.726C259.683 108.371 259.744 108.049 259.791 107.76C259.847 107.461 259.889 107.219 259.917 107.032C259.945 106.836 259.963 106.631 259.973 106.416C259.982 106.201 259.977 106.019 259.959 105.87L261.303 105.982ZM258.195 108.32C258.717 108.32 259.277 108.297 259.875 108.25C260.481 108.194 261.097 108.115 261.723 108.012C262.348 107.909 262.95 107.783 263.529 107.634V108.74C262.95 108.871 262.343 108.983 261.709 109.076C261.074 109.169 260.449 109.244 259.833 109.3C259.226 109.347 258.675 109.37 258.181 109.37C257.873 109.37 257.588 109.365 257.327 109.356C257.065 109.337 256.809 109.323 256.557 109.314L256.515 108.222C256.851 108.259 257.149 108.287 257.411 108.306C257.681 108.315 257.943 108.32 258.195 108.32ZM262.619 110.252C262.992 110.215 263.398 110.187 263.837 110.168C264.285 110.14 264.733 110.126 265.181 110.126C265.591 110.126 266.002 110.135 266.413 110.154C266.833 110.173 267.229 110.205 267.603 110.252L267.575 111.316C267.22 111.269 266.842 111.232 266.441 111.204C266.039 111.167 265.633 111.148 265.223 111.148C264.784 111.148 264.345 111.162 263.907 111.19C263.477 111.209 263.048 111.241 262.619 111.288V110.252ZM262.913 113.654C262.857 113.878 262.81 114.097 262.773 114.312C262.735 114.527 262.717 114.727 262.717 114.914C262.717 115.082 262.745 115.245 262.801 115.404C262.866 115.553 262.983 115.689 263.151 115.81C263.319 115.931 263.557 116.029 263.865 116.104C264.182 116.179 264.588 116.216 265.083 116.216C265.54 116.216 266.002 116.193 266.469 116.146C266.935 116.099 267.383 116.029 267.813 115.936L267.771 117.07C267.397 117.126 266.982 117.173 266.525 117.21C266.067 117.247 265.582 117.266 265.069 117.266C263.967 117.266 263.123 117.098 262.535 116.762C261.947 116.417 261.653 115.899 261.653 115.208C261.653 114.937 261.671 114.667 261.709 114.396C261.755 114.125 261.807 113.845 261.863 113.556L262.913 113.654ZM275.639 113.612L275.359 108.18L275.331 106.528H276.871L276.843 108.18L276.563 113.612H275.639ZM276.101 117.07C275.849 117.07 275.634 116.986 275.457 116.818C275.289 116.65 275.205 116.426 275.205 116.146C275.205 115.866 275.293 115.642 275.471 115.474C275.648 115.297 275.858 115.208 276.101 115.208C276.343 115.208 276.553 115.297 276.731 115.474C276.908 115.642 276.997 115.866 276.997 116.146C276.997 116.426 276.908 116.65 276.731 116.818C276.553 116.986 276.343 117.07 276.101 117.07ZM38.042 126.268L39.134 126.464C38.938 127.276 38.7094 128.065 38.448 128.83C38.1867 129.586 37.8927 130.291 37.566 130.944C37.2394 131.588 36.8894 132.162 36.516 132.666C36.4414 132.601 36.3434 132.531 36.222 132.456C36.1007 132.381 35.9747 132.311 35.844 132.246C35.7134 132.171 35.6014 132.115 35.508 132.078C35.9 131.611 36.2547 131.075 36.572 130.468C36.8987 129.852 37.1834 129.185 37.426 128.466C37.678 127.747 37.8834 127.015 38.042 126.268ZM40.352 129.712H40.884V131.588C40.884 131.831 40.9167 132.162 40.982 132.582C41.0567 133.002 41.1827 133.464 41.36 133.968C41.5467 134.472 41.808 134.985 42.144 135.508C42.48 136.031 42.9094 136.525 43.432 136.992C43.964 137.449 44.6127 137.846 45.378 138.182C45.3034 138.257 45.224 138.35 45.14 138.462C45.056 138.583 44.972 138.7 44.888 138.812C44.8134 138.933 44.748 139.036 44.692 139.12C44.0947 138.849 43.5674 138.527 43.11 138.154C42.662 137.781 42.27 137.384 41.934 136.964C41.6074 136.535 41.332 136.11 41.108 135.69C40.884 135.27 40.7067 134.878 40.576 134.514C40.4547 134.141 40.3754 133.823 40.338 133.562C40.2914 133.823 40.198 134.136 40.058 134.5C39.918 134.864 39.7267 135.256 39.484 135.676C39.2414 136.087 38.9287 136.502 38.546 136.922C38.1727 137.342 37.7294 137.739 37.216 138.112C36.7027 138.495 36.11 138.831 35.438 139.12C35.3914 139.036 35.3307 138.938 35.256 138.826C35.1814 138.723 35.102 138.616 35.018 138.504C34.934 138.401 34.8594 138.317 34.794 138.252C35.6527 137.916 36.3714 137.515 36.95 137.048C37.538 136.581 38.0187 136.087 38.392 135.564C38.7654 135.041 39.05 134.528 39.246 134.024C39.4514 133.511 39.5914 133.044 39.666 132.624C39.75 132.195 39.792 131.849 39.792 131.588V129.712H40.352ZM32.33 136.236C32.6007 135.975 32.9134 135.671 33.268 135.326C33.632 134.971 34.01 134.589 34.402 134.178C34.8034 133.767 35.2 133.357 35.592 132.946L36.18 133.842C35.6667 134.411 35.13 134.985 34.57 135.564C34.01 136.133 33.492 136.647 33.016 137.104L32.33 136.236ZM32.778 127.934L33.52 127.178C33.8187 127.365 34.1314 127.584 34.458 127.836C34.794 128.079 35.1067 128.321 35.396 128.564C35.6854 128.807 35.9187 129.031 36.096 129.236L35.312 130.104C35.1347 129.899 34.906 129.665 34.626 129.404C34.346 129.143 34.0427 128.886 33.716 128.634C33.3894 128.373 33.0767 128.139 32.778 127.934ZM38.056 128.76H44.356V129.796H37.58L38.056 128.76ZM44.006 128.76H44.16L44.37 128.704L45.14 129.124C45.0094 129.572 44.8554 130.025 44.678 130.482C44.51 130.939 44.328 131.373 44.132 131.784C43.9454 132.185 43.7634 132.545 43.586 132.862C43.5114 132.825 43.418 132.778 43.306 132.722C43.2034 132.666 43.096 132.61 42.984 132.554C42.8814 132.498 42.788 132.456 42.704 132.428C42.8627 132.139 43.026 131.803 43.194 131.42C43.362 131.028 43.5207 130.622 43.67 130.202C43.8194 129.773 43.9314 129.376 44.006 129.012V128.76ZM53.694 128.438C53.6007 129.166 53.4794 129.927 53.33 130.72C53.19 131.513 53.008 132.283 52.784 133.03C52.504 133.991 52.1914 134.794 51.846 135.438C51.51 136.082 51.146 136.567 50.754 136.894C50.362 137.221 49.9514 137.384 49.522 137.384C49.1114 137.384 48.7147 137.235 48.332 136.936C47.9494 136.637 47.6367 136.208 47.394 135.648C47.1514 135.079 47.03 134.411 47.03 133.646C47.03 132.881 47.184 132.157 47.492 131.476C47.8094 130.795 48.2434 130.193 48.794 129.67C49.354 129.138 50.0074 128.718 50.754 128.41C51.5007 128.102 52.2987 127.948 53.148 127.948C53.9694 127.948 54.7067 128.083 55.36 128.354C56.0227 128.625 56.5874 128.998 57.054 129.474C57.5207 129.941 57.88 130.487 58.132 131.112C58.384 131.728 58.51 132.391 58.51 133.1C58.51 134.08 58.3 134.943 57.88 135.69C57.4694 136.437 56.872 137.043 56.088 137.51C55.3134 137.977 54.3707 138.285 53.26 138.434L52.602 137.398C52.826 137.37 53.0407 137.342 53.246 137.314C53.4514 137.286 53.638 137.253 53.806 137.216C54.254 137.113 54.688 136.955 55.108 136.74C55.5374 136.516 55.92 136.236 56.256 135.9C56.592 135.555 56.858 135.149 57.054 134.682C57.2594 134.206 57.362 133.665 57.362 133.058C57.362 132.489 57.2687 131.961 57.082 131.476C56.8954 130.981 56.62 130.547 56.256 130.174C55.892 129.801 55.4487 129.507 54.926 129.292C54.4034 129.077 53.806 128.97 53.134 128.97C52.3687 128.97 51.6734 129.11 51.048 129.39C50.432 129.67 49.9047 130.039 49.466 130.496C49.0367 130.944 48.7054 131.439 48.472 131.98C48.2387 132.512 48.122 133.035 48.122 133.548C48.122 134.136 48.1967 134.621 48.346 135.004C48.5047 135.377 48.6914 135.653 48.906 135.83C49.13 136.007 49.3494 136.096 49.564 136.096C49.788 136.096 50.0167 135.989 50.25 135.774C50.4834 135.55 50.7214 135.195 50.964 134.71C51.2067 134.215 51.4447 133.576 51.678 132.792C51.8834 132.12 52.056 131.406 52.196 130.65C52.3454 129.894 52.4527 129.152 52.518 128.424L53.694 128.438ZM72.832 128.536C72.776 128.601 72.7107 128.681 72.636 128.774C72.5707 128.867 72.51 128.956 72.454 129.04C72.2767 129.357 72.0107 129.749 71.656 130.216C71.3107 130.673 70.9094 131.145 70.452 131.63C69.9947 132.106 69.5 132.531 68.968 132.904L68.044 132.162C68.3707 131.975 68.688 131.751 68.996 131.49C69.3134 131.219 69.6074 130.939 69.878 130.65C70.158 130.351 70.4007 130.062 70.606 129.782C70.8207 129.493 70.9887 129.241 71.11 129.026C70.9607 129.026 70.718 129.026 70.382 129.026C70.0554 129.026 69.6634 129.026 69.206 129.026C68.758 129.026 68.2774 129.026 67.764 129.026C67.2507 129.026 66.742 129.026 66.238 129.026C65.734 129.026 65.2627 129.026 64.824 129.026C64.3854 129.026 64.0167 129.026 63.718 129.026C63.4194 129.026 63.2234 129.026 63.13 129.026C62.8687 129.026 62.6074 129.035 62.346 129.054C62.0847 129.063 61.814 129.082 61.534 129.11V127.836C61.7767 127.873 62.038 127.906 62.318 127.934C62.598 127.953 62.8687 127.962 63.13 127.962C63.2234 127.962 63.424 127.962 63.732 127.962C64.04 127.962 64.4134 127.962 64.852 127.962C65.3 127.962 65.7854 127.962 66.308 127.962C66.8307 127.962 67.3487 127.962 67.862 127.962C68.3847 127.962 68.8747 127.962 69.332 127.962C69.7894 127.962 70.1767 127.962 70.494 127.962C70.8207 127.962 71.0447 127.962 71.166 127.962C71.2594 127.962 71.3667 127.962 71.488 127.962C71.6187 127.953 71.7447 127.939 71.866 127.92C71.9874 127.901 72.0807 127.887 72.146 127.878L72.832 128.536ZM67.246 130.384C67.246 131.14 67.2227 131.849 67.176 132.512C67.1294 133.175 67.036 133.795 66.896 134.374C66.756 134.953 66.5414 135.489 66.252 135.984C65.972 136.469 65.594 136.927 65.118 137.356C64.642 137.776 64.0494 138.163 63.34 138.518L62.304 137.678C62.5 137.613 62.71 137.529 62.934 137.426C63.158 137.314 63.368 137.188 63.564 137.048C64.1147 136.721 64.5534 136.353 64.88 135.942C65.2067 135.531 65.4494 135.088 65.608 134.612C65.776 134.127 65.888 133.618 65.944 133.086C66.0094 132.545 66.042 131.985 66.042 131.406C66.042 131.229 66.0374 131.061 66.028 130.902C66.028 130.743 66.014 130.571 65.986 130.384H67.246ZM76.4155 127.738C76.6675 127.906 76.9568 128.116 77.2835 128.368C77.6102 128.611 77.9415 128.872 78.2775 129.152C78.6228 129.423 78.9448 129.689 79.2435 129.95C79.5422 130.211 79.7895 130.44 79.9855 130.636L79.1035 131.518C78.9262 131.341 78.6975 131.121 78.4175 130.86C78.1375 130.599 77.8295 130.328 77.4935 130.048C77.1575 129.759 76.8262 129.488 76.4995 129.236C76.1728 128.975 75.8788 128.76 75.6175 128.592L76.4155 127.738ZM75.2115 137.118C76.0328 136.997 76.7795 136.829 77.4515 136.614C78.1328 136.399 78.7535 136.157 79.3135 135.886C79.8735 135.615 80.3728 135.345 80.8115 135.074C81.5302 134.626 82.1928 134.113 82.7995 133.534C83.4062 132.946 83.9382 132.339 84.3955 131.714C84.8528 131.089 85.2168 130.491 85.4875 129.922L86.1595 131.112C85.8422 131.691 85.4502 132.279 84.9835 132.876C84.5168 133.473 83.9895 134.047 83.4015 134.598C82.8135 135.149 82.1648 135.648 81.4555 136.096C80.9888 136.385 80.4755 136.67 79.9155 136.95C79.3648 137.23 78.7582 137.487 78.0955 137.72C77.4422 137.944 76.7282 138.126 75.9535 138.266L75.2115 137.118ZM93.0055 127.178C92.9495 127.337 92.8888 127.505 92.8235 127.682C92.7675 127.85 92.7115 128.009 92.6555 128.158C92.5902 128.373 92.5062 128.606 92.4035 128.858C92.3102 129.11 92.2075 129.371 92.0955 129.642C91.9835 129.903 91.8622 130.165 91.7315 130.426C91.5448 130.781 91.3162 131.163 91.0455 131.574C90.7748 131.985 90.4855 132.377 90.1775 132.75C89.8695 133.114 89.5662 133.417 89.2675 133.66L88.1615 133.002C88.4135 132.815 88.6608 132.596 88.9035 132.344C89.1555 132.092 89.3888 131.826 89.6035 131.546C89.8275 131.257 90.0282 130.977 90.2055 130.706C90.3828 130.435 90.5322 130.197 90.6535 129.992C90.8495 129.637 91.0128 129.287 91.1435 128.942C91.2742 128.597 91.3768 128.293 91.4515 128.032C91.5075 127.845 91.5542 127.659 91.5915 127.472C91.6288 127.285 91.6522 127.099 91.6615 126.912L93.0055 127.178ZM91.2555 129.572C91.3768 129.572 91.5915 129.572 91.8995 129.572C92.2075 129.572 92.5715 129.572 92.9915 129.572C93.4115 129.572 93.8595 129.572 94.3355 129.572C94.8115 129.572 95.2875 129.572 95.7635 129.572C96.2395 129.572 96.6828 129.572 97.0935 129.572C97.5135 129.572 97.8635 129.572 98.1435 129.572C98.4328 129.572 98.6288 129.572 98.7315 129.572C98.9088 129.572 99.1188 129.567 99.3615 129.558C99.6135 129.549 99.8422 129.53 100.047 129.502V130.706C99.8235 130.687 99.5855 130.678 99.3335 130.678C99.0908 130.669 98.8902 130.664 98.7315 130.664C98.6102 130.664 98.3675 130.664 98.0035 130.664C97.6395 130.664 97.1962 130.664 96.6735 130.664C96.1602 130.664 95.6142 130.664 95.0355 130.664C94.4662 130.664 93.9108 130.664 93.3695 130.664C92.8375 130.664 92.3708 130.664 91.9695 130.664C91.5682 130.664 91.2835 130.664 91.1155 130.664L91.2555 129.572ZM96.3935 130.174C96.3562 131.247 96.2348 132.213 96.0295 133.072C95.8242 133.931 95.5348 134.701 95.1615 135.382C94.7975 136.054 94.3635 136.651 93.8595 137.174C93.3555 137.687 92.7908 138.145 92.1655 138.546L90.9755 137.734C91.1715 137.659 91.3675 137.566 91.5635 137.454C91.7688 137.333 91.9508 137.211 92.1095 137.09C92.4735 136.819 92.8328 136.488 93.1875 136.096C93.5422 135.704 93.8688 135.233 94.1675 134.682C94.4662 134.122 94.7088 133.473 94.8955 132.736C95.0822 131.989 95.1848 131.131 95.2035 130.16L96.3935 130.174ZM102.665 131.938C102.805 131.947 102.978 131.961 103.183 131.98C103.389 131.989 103.613 131.999 103.855 132.008C104.107 132.008 104.359 132.008 104.611 132.008C104.761 132.008 104.989 132.008 105.297 132.008C105.615 132.008 105.983 132.008 106.403 132.008C106.823 132.008 107.267 132.008 107.733 132.008C108.209 132.008 108.681 132.008 109.147 132.008C109.623 132.008 110.071 132.008 110.491 132.008C110.921 132.008 111.289 132.008 111.597 132.008C111.905 132.008 112.134 132.008 112.283 132.008C112.638 132.008 112.941 131.999 113.193 131.98C113.445 131.961 113.646 131.947 113.795 131.938V133.31C113.655 133.301 113.445 133.287 113.165 133.268C112.895 133.249 112.605 133.24 112.297 133.24C112.148 133.24 111.915 133.24 111.597 133.24C111.28 133.24 110.911 133.24 110.491 133.24C110.081 133.24 109.637 133.24 109.161 133.24C108.685 133.24 108.209 133.24 107.733 133.24C107.267 133.24 106.823 133.24 106.403 133.24C105.993 133.24 105.629 133.24 105.311 133.24C104.994 133.24 104.761 133.24 104.611 133.24C104.229 133.24 103.865 133.249 103.519 133.268C103.174 133.277 102.889 133.291 102.665 133.31V131.938ZM119.955 136.768C119.955 136.637 119.955 136.376 119.955 135.984C119.955 135.583 119.955 135.111 119.955 134.57C119.955 134.019 119.955 133.445 119.955 132.848C119.955 132.241 119.955 131.653 119.955 131.084C119.955 130.515 119.955 130.011 119.955 129.572C119.955 129.133 119.955 128.816 119.955 128.62C119.955 128.424 119.946 128.186 119.927 127.906C119.909 127.626 119.881 127.379 119.843 127.164H121.215C121.197 127.369 121.173 127.612 121.145 127.892C121.127 128.172 121.117 128.415 121.117 128.62C121.117 128.984 121.117 129.423 121.117 129.936C121.117 130.44 121.117 130.981 121.117 131.56C121.117 132.129 121.117 132.699 121.117 133.268C121.127 133.828 121.131 134.355 121.131 134.85C121.131 135.335 121.131 135.751 121.131 136.096C121.131 136.432 121.131 136.656 121.131 136.768C121.131 136.917 121.131 137.09 121.131 137.286C121.141 137.482 121.155 137.683 121.173 137.888C121.192 138.084 121.206 138.261 121.215 138.42H119.857C119.895 138.196 119.918 137.93 119.927 137.622C119.946 137.314 119.955 137.029 119.955 136.768ZM120.879 130.832C121.337 130.972 121.841 131.14 122.391 131.336C122.951 131.523 123.521 131.723 124.099 131.938C124.678 132.153 125.224 132.372 125.737 132.596C126.26 132.811 126.713 133.016 127.095 133.212L126.619 134.402C126.218 134.178 125.765 133.959 125.261 133.744C124.757 133.52 124.239 133.301 123.707 133.086C123.185 132.871 122.676 132.68 122.181 132.512C121.696 132.335 121.262 132.19 120.879 132.078V130.832ZM137.133 128.438C137.04 129.166 136.919 129.927 136.769 130.72C136.629 131.513 136.447 132.283 136.223 133.03C135.943 133.991 135.631 134.794 135.285 135.438C134.949 136.082 134.585 136.567 134.193 136.894C133.801 137.221 133.391 137.384 132.961 137.384C132.551 137.384 132.154 137.235 131.771 136.936C131.389 136.637 131.076 136.208 130.833 135.648C130.591 135.079 130.469 134.411 130.469 133.646C130.469 132.881 130.623 132.157 130.931 131.476C131.249 130.795 131.683 130.193 132.233 129.67C132.793 129.138 133.447 128.718 134.193 128.41C134.94 128.102 135.738 127.948 136.587 127.948C137.409 127.948 138.146 128.083 138.799 128.354C139.462 128.625 140.027 128.998 140.493 129.474C140.96 129.941 141.319 130.487 141.571 131.112C141.823 131.728 141.949 132.391 141.949 133.1C141.949 134.08 141.739 134.943 141.319 135.69C140.909 136.437 140.311 137.043 139.527 137.51C138.753 137.977 137.81 138.285 136.699 138.434L136.041 137.398C136.265 137.37 136.48 137.342 136.685 137.314C136.891 137.286 137.077 137.253 137.245 137.216C137.693 137.113 138.127 136.955 138.547 136.74C138.977 136.516 139.359 136.236 139.695 135.9C140.031 135.555 140.297 135.149 140.493 134.682C140.699 134.206 140.801 133.665 140.801 133.058C140.801 132.489 140.708 131.961 140.521 131.476C140.335 130.981 140.059 130.547 139.695 130.174C139.331 129.801 138.888 129.507 138.365 129.292C137.843 129.077 137.245 128.97 136.573 128.97C135.808 128.97 135.113 129.11 134.487 129.39C133.871 129.67 133.344 130.039 132.905 130.496C132.476 130.944 132.145 131.439 131.911 131.98C131.678 132.512 131.561 133.035 131.561 133.548C131.561 134.136 131.636 134.621 131.785 135.004C131.944 135.377 132.131 135.653 132.345 135.83C132.569 136.007 132.789 136.096 133.003 136.096C133.227 136.096 133.456 135.989 133.689 135.774C133.923 135.55 134.161 135.195 134.403 134.71C134.646 134.215 134.884 133.576 135.117 132.792C135.323 132.12 135.495 131.406 135.635 130.65C135.785 129.894 135.892 129.152 135.957 128.424L137.133 128.438ZM149.047 131.588C149.495 131.849 149.967 132.139 150.461 132.456C150.956 132.773 151.446 133.105 151.931 133.45C152.426 133.786 152.897 134.117 153.345 134.444C153.793 134.771 154.19 135.079 154.535 135.368L153.709 136.334C153.392 136.045 153.009 135.727 152.561 135.382C152.123 135.027 151.656 134.673 151.161 134.318C150.667 133.954 150.172 133.604 149.677 133.268C149.183 132.932 148.721 132.629 148.291 132.358L149.047 131.588ZM155.459 129.026C155.394 129.129 155.333 129.255 155.277 129.404C155.221 129.544 155.17 129.67 155.123 129.782C154.993 130.258 154.806 130.771 154.563 131.322C154.321 131.873 154.036 132.428 153.709 132.988C153.383 133.539 153.009 134.071 152.589 134.584C151.964 135.359 151.18 136.105 150.237 136.824C149.304 137.533 148.175 138.131 146.849 138.616L145.841 137.748C146.709 137.477 147.498 137.146 148.207 136.754C148.926 136.353 149.57 135.914 150.139 135.438C150.709 134.962 151.203 134.472 151.623 133.968C151.987 133.539 152.319 133.067 152.617 132.554C152.925 132.041 153.191 131.532 153.415 131.028C153.639 130.515 153.803 130.039 153.905 129.6H148.711L149.159 128.606H153.611C153.798 128.606 153.971 128.597 154.129 128.578C154.288 128.55 154.423 128.513 154.535 128.466L155.459 129.026ZM150.741 127.01C150.62 127.197 150.503 127.393 150.391 127.598C150.279 127.803 150.186 127.971 150.111 128.102C149.831 128.615 149.467 129.18 149.019 129.796C148.581 130.403 148.063 131.009 147.465 131.616C146.877 132.223 146.21 132.787 145.463 133.31L144.525 132.582C145.328 132.087 146.023 131.541 146.611 130.944C147.199 130.347 147.694 129.763 148.095 129.194C148.497 128.625 148.805 128.13 149.019 127.71C149.094 127.589 149.178 127.421 149.271 127.206C149.365 126.982 149.43 126.781 149.467 126.604L150.741 127.01ZM158.441 132.946C159.655 132.619 160.784 132.223 161.829 131.756C162.875 131.289 163.785 130.813 164.559 130.328C165.045 130.02 165.516 129.689 165.973 129.334C166.44 128.97 166.879 128.592 167.289 128.2C167.7 127.808 168.064 127.421 168.381 127.038L169.319 127.906C168.927 128.326 168.503 128.737 168.045 129.138C167.588 129.539 167.103 129.927 166.589 130.3C166.085 130.664 165.558 131.019 165.007 131.364C164.494 131.672 163.915 131.989 163.271 132.316C162.627 132.643 161.941 132.951 161.213 133.24C160.485 133.529 159.748 133.795 159.001 134.038L158.441 132.946ZM164.335 130.916L165.539 130.552V136.936C165.539 137.113 165.539 137.3 165.539 137.496C165.549 137.692 165.558 137.874 165.567 138.042C165.586 138.21 165.605 138.341 165.623 138.434H164.251C164.261 138.341 164.27 138.21 164.279 138.042C164.298 137.874 164.312 137.692 164.321 137.496C164.331 137.3 164.335 137.113 164.335 136.936V130.916ZM175.255 127.402C175.619 127.449 176.049 127.514 176.543 127.598C177.038 127.682 177.561 127.78 178.111 127.892C178.671 128.004 179.227 128.125 179.777 128.256C180.337 128.387 180.86 128.517 181.345 128.648C181.831 128.779 182.251 128.905 182.605 129.026L182.157 130.104C181.812 129.983 181.401 129.857 180.925 129.726C180.449 129.586 179.941 129.451 179.399 129.32C178.867 129.189 178.321 129.068 177.761 128.956C177.211 128.835 176.683 128.732 176.179 128.648C175.685 128.555 175.241 128.485 174.849 128.438L175.255 127.402ZM174.625 131.098C175.101 131.182 175.652 131.285 176.277 131.406C176.903 131.527 177.547 131.667 178.209 131.826C178.881 131.975 179.521 132.134 180.127 132.302C180.734 132.461 181.252 132.619 181.681 132.778L181.233 133.856C180.832 133.697 180.333 133.534 179.735 133.366C179.147 133.198 178.522 133.035 177.859 132.876C177.197 132.717 176.543 132.577 175.899 132.456C175.265 132.325 174.7 132.223 174.205 132.148L174.625 131.098ZM173.855 135.172C174.331 135.247 174.859 135.345 175.437 135.466C176.025 135.578 176.632 135.709 177.257 135.858C177.883 135.998 178.499 136.147 179.105 136.306C179.712 136.465 180.281 136.628 180.813 136.796C181.345 136.955 181.803 137.113 182.185 137.272L181.709 138.35C181.336 138.191 180.883 138.028 180.351 137.86C179.819 137.683 179.245 137.515 178.629 137.356C178.023 137.188 177.402 137.034 176.767 136.894C176.142 136.754 175.54 136.628 174.961 136.516C174.392 136.404 173.879 136.311 173.421 136.236L173.855 135.172ZM188.415 127.738C188.667 127.906 188.957 128.116 189.283 128.368C189.61 128.611 189.941 128.872 190.277 129.152C190.623 129.423 190.945 129.689 191.243 129.95C191.542 130.211 191.789 130.44 191.985 130.636L191.103 131.518C190.926 131.341 190.697 131.121 190.417 130.86C190.137 130.599 189.829 130.328 189.493 130.048C189.157 129.759 188.826 129.488 188.499 129.236C188.173 128.975 187.879 128.76 187.617 128.592L188.415 127.738ZM187.211 137.118C188.033 136.997 188.779 136.829 189.451 136.614C190.133 136.399 190.753 136.157 191.313 135.886C191.873 135.615 192.373 135.345 192.811 135.074C193.53 134.626 194.193 134.113 194.799 133.534C195.406 132.946 195.938 132.339 196.395 131.714C196.853 131.089 197.217 130.491 197.487 129.922L198.159 131.112C197.842 131.691 197.45 132.279 196.983 132.876C196.517 133.473 195.989 134.047 195.401 134.598C194.813 135.149 194.165 135.648 193.455 136.096C192.989 136.385 192.475 136.67 191.915 136.95C191.365 137.23 190.758 137.487 190.095 137.72C189.442 137.944 188.728 138.126 187.953 138.266L187.211 137.118ZM209.947 126.8C210.069 126.959 210.199 127.155 210.339 127.388C210.479 127.612 210.615 127.841 210.745 128.074C210.876 128.307 210.993 128.522 211.095 128.718L210.339 129.054C210.199 128.774 210.022 128.447 209.807 128.074C209.593 127.701 209.392 127.383 209.205 127.122L209.947 126.8ZM211.487 126.24C211.609 126.408 211.739 126.609 211.879 126.842C212.029 127.075 212.173 127.309 212.313 127.542C212.453 127.766 212.57 127.967 212.663 128.144L211.907 128.48C211.758 128.172 211.576 127.841 211.361 127.486C211.147 127.131 210.941 126.823 210.745 126.562L211.487 126.24ZM210.871 129.586C210.815 129.679 210.759 129.801 210.703 129.95C210.647 130.09 210.596 130.216 210.549 130.328C210.428 130.795 210.251 131.308 210.017 131.868C209.793 132.419 209.518 132.979 209.191 133.548C208.865 134.108 208.491 134.645 208.071 135.158C207.437 135.933 206.676 136.637 205.789 137.272C204.903 137.907 203.806 138.471 202.499 138.966L201.477 138.042C202.336 137.79 203.106 137.487 203.787 137.132C204.469 136.768 205.08 136.367 205.621 135.928C206.172 135.489 206.657 135.023 207.077 134.528C207.441 134.099 207.773 133.627 208.071 133.114C208.37 132.601 208.627 132.087 208.841 131.574C209.065 131.051 209.219 130.58 209.303 130.16H204.123L204.571 129.152C204.683 129.152 204.893 129.152 205.201 129.152C205.509 129.152 205.859 129.152 206.251 129.152C206.653 129.152 207.049 129.152 207.441 129.152C207.833 129.152 208.174 129.152 208.463 129.152C208.753 129.152 208.944 129.152 209.037 129.152C209.224 129.152 209.392 129.143 209.541 129.124C209.7 129.105 209.835 129.073 209.947 129.026L210.871 129.586ZM206.181 127.472C206.069 127.659 205.957 127.855 205.845 128.06C205.733 128.265 205.64 128.433 205.565 128.564C205.295 129.077 204.949 129.633 204.529 130.23C204.109 130.818 203.605 131.406 203.017 131.994C202.439 132.573 201.776 133.109 201.029 133.604L200.049 132.89C200.656 132.526 201.197 132.139 201.673 131.728C202.159 131.308 202.579 130.883 202.933 130.454C203.297 130.025 203.605 129.614 203.857 129.222C204.109 128.821 204.31 128.466 204.459 128.158C204.534 128.037 204.613 127.869 204.697 127.654C204.791 127.43 204.856 127.225 204.893 127.038L206.181 127.472ZM214.343 128.788C214.605 128.779 214.843 128.769 215.057 128.76C215.281 128.741 215.459 128.727 215.589 128.718C215.813 128.69 216.135 128.657 216.555 128.62C216.985 128.573 217.475 128.527 218.025 128.48C218.576 128.424 219.169 128.368 219.803 128.312C220.438 128.256 221.077 128.2 221.721 128.144C222.235 128.097 222.72 128.06 223.177 128.032C223.635 127.995 224.059 127.967 224.451 127.948C224.843 127.92 225.193 127.901 225.501 127.892V129.012C225.24 129.012 224.941 129.017 224.605 129.026C224.269 129.035 223.938 129.054 223.611 129.082C223.285 129.11 223 129.161 222.757 129.236C222.263 129.395 221.815 129.637 221.413 129.964C221.021 130.281 220.685 130.65 220.405 131.07C220.125 131.49 219.911 131.924 219.761 132.372C219.621 132.82 219.551 133.254 219.551 133.674C219.551 134.215 219.645 134.691 219.831 135.102C220.018 135.503 220.27 135.844 220.587 136.124C220.914 136.404 221.283 136.633 221.693 136.81C222.104 136.987 222.538 137.123 222.995 137.216C223.462 137.3 223.924 137.347 224.381 137.356L223.975 138.518C223.453 138.499 222.93 138.425 222.407 138.294C221.885 138.173 221.385 137.995 220.909 137.762C220.433 137.519 220.009 137.216 219.635 136.852C219.262 136.488 218.968 136.063 218.753 135.578C218.539 135.093 218.431 134.537 218.431 133.912C218.431 133.184 218.557 132.512 218.809 131.896C219.071 131.271 219.402 130.725 219.803 130.258C220.205 129.791 220.62 129.432 221.049 129.18C220.751 129.217 220.377 129.259 219.929 129.306C219.491 129.353 219.019 129.404 218.515 129.46C218.011 129.507 217.503 129.563 216.989 129.628C216.485 129.693 216.014 129.759 215.575 129.824C215.137 129.88 214.768 129.941 214.469 130.006L214.343 128.788ZM223.485 130.734C223.588 130.883 223.709 131.075 223.849 131.308C223.999 131.532 224.143 131.765 224.283 132.008C224.423 132.241 224.54 132.465 224.633 132.68L223.919 133.016C223.761 132.671 223.583 132.33 223.387 131.994C223.191 131.649 222.986 131.331 222.771 131.042L223.485 130.734ZM225.011 130.146C225.123 130.295 225.254 130.482 225.403 130.706C225.553 130.93 225.697 131.163 225.837 131.406C225.987 131.639 226.117 131.863 226.229 132.078L225.501 132.428C225.333 132.083 225.147 131.742 224.941 131.406C224.745 131.07 224.54 130.757 224.325 130.468L225.011 130.146ZM234.727 128.2H240.593V129.166H234.727V128.2ZM236.743 129.698H237.653V136.754H236.743V129.698ZM235.077 126.226L236.099 126.436C235.866 127.416 235.553 128.345 235.161 129.222C234.769 130.09 234.317 130.827 233.803 131.434C233.757 131.369 233.682 131.294 233.579 131.21C233.477 131.117 233.374 131.023 233.271 130.93C233.169 130.837 233.075 130.767 232.991 130.72C233.477 130.179 233.897 129.511 234.251 128.718C234.606 127.925 234.881 127.094 235.077 126.226ZM233.229 133.576L239.375 130.678L239.753 131.546L233.607 134.43L233.229 133.576ZM234.461 130.79H235.413V137.496C235.413 137.767 235.465 137.944 235.567 138.028C235.679 138.112 235.927 138.154 236.309 138.154C236.403 138.154 236.571 138.154 236.813 138.154C237.065 138.154 237.341 138.154 237.639 138.154C237.938 138.154 238.218 138.154 238.479 138.154C238.741 138.154 238.932 138.154 239.053 138.154C239.259 138.154 239.413 138.112 239.515 138.028C239.618 137.944 239.693 137.785 239.739 137.552C239.786 137.319 239.819 136.978 239.837 136.53C239.949 136.614 240.089 136.693 240.257 136.768C240.435 136.833 240.593 136.88 240.733 136.908C240.696 137.459 240.621 137.888 240.509 138.196C240.407 138.513 240.248 138.737 240.033 138.868C239.819 138.999 239.511 139.064 239.109 139.064C239.044 139.064 238.913 139.064 238.717 139.064C238.521 139.064 238.297 139.064 238.045 139.064C237.793 139.064 237.541 139.064 237.289 139.064C237.037 139.064 236.813 139.064 236.617 139.064C236.431 139.064 236.309 139.064 236.253 139.064C235.787 139.064 235.423 139.017 235.161 138.924C234.9 138.84 234.718 138.681 234.615 138.448C234.513 138.224 234.461 137.902 234.461 137.482V130.79ZM239.137 130.916H239.011L239.249 130.706L239.431 130.566L240.103 130.832L240.047 130.986C240.047 131.49 240.043 131.971 240.033 132.428C240.033 132.885 240.029 133.305 240.019 133.688C240.019 134.061 240.015 134.379 240.005 134.64C239.996 134.892 239.982 135.065 239.963 135.158C239.945 135.382 239.879 135.555 239.767 135.676C239.655 135.797 239.511 135.881 239.333 135.928C239.184 135.965 239.007 135.993 238.801 136.012C238.605 136.021 238.428 136.021 238.269 136.012C238.26 135.881 238.237 135.741 238.199 135.592C238.162 135.433 238.115 135.298 238.059 135.186C238.19 135.195 238.325 135.2 238.465 135.2C238.615 135.2 238.722 135.2 238.787 135.2C238.862 135.2 238.923 135.186 238.969 135.158C239.025 135.13 239.063 135.06 239.081 134.948C239.091 134.883 239.1 134.738 239.109 134.514C239.119 134.281 239.123 133.987 239.123 133.632C239.123 133.268 239.123 132.857 239.123 132.4C239.133 131.933 239.137 131.439 239.137 130.916ZM227.853 128.522H233.775V129.516H227.853V128.522ZM229.869 131.434H232.333V132.414H229.869V131.434ZM230.317 126.268H231.325V128.872H230.317V126.268ZM229.379 129.082H230.387C230.369 130.062 230.336 131.028 230.289 131.98C230.243 132.932 230.159 133.847 230.037 134.724C229.916 135.601 229.729 136.413 229.477 137.16C229.235 137.907 228.908 138.56 228.497 139.12C228.404 138.999 228.278 138.868 228.119 138.728C227.97 138.597 227.83 138.495 227.699 138.42C228.073 137.916 228.367 137.319 228.581 136.628C228.805 135.928 228.973 135.172 229.085 134.36C229.197 133.539 229.272 132.68 229.309 131.784C229.347 130.888 229.37 129.987 229.379 129.082ZM231.983 131.434H232.949C232.949 131.434 232.949 131.467 232.949 131.532C232.949 131.588 232.949 131.653 232.949 131.728C232.949 131.803 232.949 131.863 232.949 131.91C232.921 133.086 232.893 134.075 232.865 134.878C232.847 135.681 232.814 136.339 232.767 136.852C232.73 137.365 232.683 137.762 232.627 138.042C232.571 138.322 232.497 138.523 232.403 138.644C232.291 138.793 232.175 138.896 232.053 138.952C231.932 139.017 231.773 139.064 231.577 139.092C231.419 139.111 231.204 139.12 230.933 139.12C230.663 139.12 230.383 139.111 230.093 139.092C230.084 138.952 230.056 138.789 230.009 138.602C229.963 138.425 229.902 138.275 229.827 138.154C230.107 138.173 230.369 138.182 230.611 138.182C230.854 138.191 231.027 138.196 231.129 138.196C231.223 138.205 231.302 138.196 231.367 138.168C231.442 138.149 231.507 138.098 231.563 138.014C231.638 137.902 231.703 137.636 231.759 137.216C231.815 136.787 231.857 136.124 231.885 135.228C231.923 134.332 231.955 133.137 231.983 131.644V131.434ZM242.189 130.314H254.243V131.238H242.189V130.314ZM247.747 129.418H248.867V139.12H247.747V129.418ZM243.197 132.33H252.899V133.24H244.289V135.956H243.197V132.33ZM252.367 132.33H253.445V134.934C253.445 135.177 253.413 135.363 253.347 135.494C253.291 135.625 253.165 135.727 252.969 135.802C252.792 135.867 252.559 135.909 252.269 135.928C251.989 135.937 251.649 135.942 251.247 135.942C251.219 135.811 251.168 135.671 251.093 135.522C251.028 135.363 250.963 135.228 250.897 135.116C251.187 135.125 251.448 135.13 251.681 135.13C251.924 135.13 252.087 135.125 252.171 135.116C252.246 135.116 252.297 135.102 252.325 135.074C252.353 135.046 252.367 134.999 252.367 134.934V132.33ZM247.859 134.318L248.671 134.64C248.223 135.265 247.673 135.839 247.019 136.362C246.366 136.885 245.652 137.342 244.877 137.734C244.103 138.126 243.314 138.439 242.511 138.672C242.465 138.579 242.404 138.476 242.329 138.364C242.255 138.261 242.171 138.159 242.077 138.056C241.993 137.953 241.914 137.865 241.839 137.79C242.633 137.603 243.412 137.337 244.177 136.992C244.952 136.647 245.657 136.25 246.291 135.802C246.935 135.345 247.458 134.85 247.859 134.318ZM248.615 134.276C248.961 134.715 249.437 135.158 250.043 135.606C250.659 136.054 251.373 136.465 252.185 136.838C252.997 137.202 253.865 137.487 254.789 137.692C254.715 137.757 254.635 137.846 254.551 137.958C254.467 138.07 254.388 138.182 254.313 138.294C254.239 138.415 254.173 138.518 254.117 138.602C253.203 138.359 252.349 138.033 251.555 137.622C250.771 137.202 250.081 136.749 249.483 136.264C248.886 135.779 248.405 135.312 248.041 134.864L248.615 134.276ZM243.617 127.472H248.027V128.368H243.617V127.472ZM248.979 127.472H254.425V128.368H248.979V127.472ZM243.911 126.184L244.905 126.45C244.625 127.131 244.275 127.785 243.855 128.41C243.445 129.035 243.02 129.567 242.581 130.006C242.516 129.95 242.427 129.885 242.315 129.81C242.213 129.735 242.105 129.665 241.993 129.6C241.881 129.525 241.783 129.465 241.699 129.418C242.157 129.026 242.577 128.545 242.959 127.976C243.351 127.397 243.669 126.8 243.911 126.184ZM249.329 126.184L250.365 126.436C250.104 127.145 249.759 127.813 249.329 128.438C248.9 129.054 248.447 129.577 247.971 130.006C247.906 129.95 247.817 129.885 247.705 129.81C247.603 129.726 247.495 129.647 247.383 129.572C247.271 129.497 247.169 129.437 247.075 129.39C247.561 128.998 247.999 128.527 248.391 127.976C248.793 127.416 249.105 126.819 249.329 126.184ZM244.443 128.158L245.339 127.864C245.507 128.144 245.68 128.457 245.857 128.802C246.035 129.138 246.161 129.427 246.235 129.67L245.311 130.02C245.237 129.768 245.115 129.469 244.947 129.124C244.789 128.769 244.621 128.447 244.443 128.158ZM250.239 128.102L251.135 127.822C251.341 128.102 251.546 128.415 251.751 128.76C251.957 129.105 252.106 129.404 252.199 129.656L251.261 129.992C251.177 129.731 251.037 129.423 250.841 129.068C250.645 128.713 250.445 128.391 250.239 128.102ZM263.133 128.438C263.04 129.166 262.919 129.927 262.769 130.72C262.629 131.513 262.447 132.283 262.223 133.03C261.943 133.991 261.631 134.794 261.285 135.438C260.949 136.082 260.585 136.567 260.193 136.894C259.801 137.221 259.391 137.384 258.961 137.384C258.551 137.384 258.154 137.235 257.771 136.936C257.389 136.637 257.076 136.208 256.833 135.648C256.591 135.079 256.469 134.411 256.469 133.646C256.469 132.881 256.623 132.157 256.931 131.476C257.249 130.795 257.683 130.193 258.233 129.67C258.793 129.138 259.447 128.718 260.193 128.41C260.94 128.102 261.738 127.948 262.587 127.948C263.409 127.948 264.146 128.083 264.799 128.354C265.462 128.625 266.027 128.998 266.493 129.474C266.96 129.941 267.319 130.487 267.571 131.112C267.823 131.728 267.949 132.391 267.949 133.1C267.949 134.08 267.739 134.943 267.319 135.69C266.909 136.437 266.311 137.043 265.527 137.51C264.753 137.977 263.81 138.285 262.699 138.434L262.041 137.398C262.265 137.37 262.48 137.342 262.685 137.314C262.891 137.286 263.077 137.253 263.245 137.216C263.693 137.113 264.127 136.955 264.547 136.74C264.977 136.516 265.359 136.236 265.695 135.9C266.031 135.555 266.297 135.149 266.493 134.682C266.699 134.206 266.801 133.665 266.801 133.058C266.801 132.489 266.708 131.961 266.521 131.476C266.335 130.981 266.059 130.547 265.695 130.174C265.331 129.801 264.888 129.507 264.365 129.292C263.843 129.077 263.245 128.97 262.573 128.97C261.808 128.97 261.113 129.11 260.487 129.39C259.871 129.67 259.344 130.039 258.905 130.496C258.476 130.944 258.145 131.439 257.911 131.98C257.678 132.512 257.561 133.035 257.561 133.548C257.561 134.136 257.636 134.621 257.785 135.004C257.944 135.377 258.131 135.653 258.345 135.83C258.569 136.007 258.789 136.096 259.003 136.096C259.227 136.096 259.456 135.989 259.689 135.774C259.923 135.55 260.161 135.195 260.403 134.71C260.646 134.215 260.884 133.576 261.117 132.792C261.323 132.12 261.495 131.406 261.635 130.65C261.785 129.894 261.892 129.152 261.957 128.424L263.133 128.438ZM278.281 126.24H279.345V131.728H278.281V126.24ZM276.461 137.454H281.459V138.406H276.461V137.454ZM275.033 128.228H282.691V129.18H275.033V128.228ZM275.481 131.28H282.369V132.26H275.481V131.28ZM275.929 133.772H281.977V139.064H280.969V134.724H276.909V139.106H275.929V133.772ZM271.967 126.24L272.905 126.604C272.737 126.94 272.551 127.295 272.345 127.668C272.14 128.041 271.939 128.401 271.743 128.746C271.547 129.082 271.356 129.381 271.169 129.642L270.441 129.32C270.619 129.049 270.801 128.737 270.987 128.382C271.174 128.018 271.356 127.649 271.533 127.276C271.711 126.893 271.855 126.548 271.967 126.24ZM273.661 127.836L274.585 128.228C274.259 128.76 273.895 129.32 273.493 129.908C273.101 130.487 272.705 131.051 272.303 131.602C271.902 132.153 271.524 132.629 271.169 133.03L270.497 132.68C270.768 132.363 271.048 132.003 271.337 131.602C271.627 131.201 271.911 130.781 272.191 130.342C272.481 129.903 272.751 129.469 273.003 129.04C273.255 128.611 273.475 128.209 273.661 127.836ZM269.769 129.194L270.287 128.494C270.549 128.709 270.815 128.947 271.085 129.208C271.356 129.469 271.603 129.731 271.827 129.992C272.051 130.244 272.224 130.473 272.345 130.678L271.785 131.49C271.655 131.266 271.477 131.019 271.253 130.748C271.039 130.477 270.801 130.207 270.539 129.936C270.278 129.665 270.021 129.418 269.769 129.194ZM273.213 131.084L273.997 130.748C274.203 131.056 274.399 131.383 274.585 131.728C274.772 132.073 274.935 132.409 275.075 132.736C275.225 133.063 275.332 133.357 275.397 133.618L274.571 134.01C274.497 133.749 274.389 133.45 274.249 133.114C274.109 132.778 273.951 132.433 273.773 132.078C273.596 131.723 273.409 131.392 273.213 131.084ZM269.741 132.498C270.367 132.479 271.109 132.456 271.967 132.428C272.835 132.391 273.727 132.349 274.641 132.302L274.627 133.17C273.759 133.226 272.905 133.282 272.065 133.338C271.225 133.385 270.479 133.422 269.825 133.45L269.741 132.498ZM273.577 134.444L274.361 134.178C274.567 134.607 274.758 135.074 274.935 135.578C275.122 136.082 275.253 136.516 275.327 136.88L274.459 137.174C274.394 136.801 274.277 136.362 274.109 135.858C273.941 135.345 273.764 134.873 273.577 134.444ZM270.511 134.248L271.407 134.402C271.314 135.065 271.183 135.718 271.015 136.362C270.847 136.997 270.651 137.538 270.427 137.986C270.362 137.939 270.278 137.893 270.175 137.846C270.082 137.799 269.979 137.753 269.867 137.706C269.765 137.65 269.671 137.608 269.587 137.58C269.83 137.151 270.021 136.642 270.161 136.054C270.311 135.457 270.427 134.855 270.511 134.248ZM272.121 132.904H273.073V139.148H272.121V132.904ZM284.105 133.674H296.383V134.64H284.105V133.674ZM289.691 127.262H290.797V139.12H289.691V127.262ZM289.313 134.08L290.195 134.472C289.757 135.06 289.225 135.625 288.599 136.166C287.974 136.707 287.302 137.193 286.583 137.622C285.874 138.042 285.169 138.387 284.469 138.658C284.413 138.574 284.343 138.476 284.259 138.364C284.175 138.252 284.087 138.145 283.993 138.042C283.909 137.949 283.825 137.865 283.741 137.79C284.264 137.622 284.791 137.407 285.323 137.146C285.855 136.885 286.369 136.591 286.863 136.264C287.367 135.937 287.825 135.587 288.235 135.214C288.655 134.841 289.015 134.463 289.313 134.08ZM291.105 134.038C291.413 134.421 291.782 134.794 292.211 135.158C292.65 135.522 293.121 135.867 293.625 136.194C294.129 136.511 294.647 136.801 295.179 137.062C295.721 137.323 296.243 137.538 296.747 137.706C296.673 137.771 296.589 137.86 296.495 137.972C296.402 138.075 296.313 138.182 296.229 138.294C296.155 138.406 296.089 138.504 296.033 138.588C295.52 138.383 294.993 138.135 294.451 137.846C293.919 137.547 293.397 137.216 292.883 136.852C292.379 136.488 291.903 136.101 291.455 135.69C291.007 135.27 290.615 134.845 290.279 134.416L291.105 134.038ZM286.541 130.118V131.574H293.975V130.118H286.541ZM286.541 127.822V129.25H293.975V127.822H286.541ZM285.463 126.912H295.109V132.484H285.463V126.912ZM303.677 126.926C303.621 127.206 303.547 127.537 303.453 127.92C303.369 128.293 303.229 128.718 303.033 129.194C302.865 129.614 302.655 130.048 302.403 130.496C302.161 130.944 301.899 131.35 301.619 131.714C301.797 131.602 301.997 131.509 302.221 131.434C302.445 131.35 302.674 131.289 302.907 131.252C303.15 131.215 303.369 131.196 303.565 131.196C304.107 131.196 304.564 131.35 304.937 131.658C305.311 131.957 305.497 132.395 305.497 132.974C305.497 133.151 305.497 133.38 305.497 133.66C305.497 133.931 305.497 134.22 305.497 134.528C305.507 134.827 305.516 135.121 305.525 135.41C305.535 135.699 305.539 135.951 305.539 136.166H304.461C304.471 135.979 304.48 135.76 304.489 135.508C304.499 135.256 304.503 134.99 304.503 134.71C304.513 134.43 304.513 134.164 304.503 133.912C304.503 133.66 304.503 133.445 304.503 133.268C304.503 132.857 304.377 132.559 304.125 132.372C303.883 132.176 303.575 132.078 303.201 132.078C302.763 132.078 302.329 132.176 301.899 132.372C301.479 132.559 301.111 132.801 300.793 133.1C300.588 133.296 300.383 133.52 300.177 133.772C299.981 134.015 299.762 134.276 299.519 134.556L298.567 133.856C299.239 133.203 299.799 132.591 300.247 132.022C300.695 131.453 301.059 130.925 301.339 130.44C301.619 129.945 301.839 129.502 301.997 129.11C302.147 128.718 302.268 128.326 302.361 127.934C302.455 127.533 302.511 127.164 302.529 126.828L303.677 126.926ZM298.889 128.438C299.263 128.485 299.669 128.522 300.107 128.55C300.546 128.578 300.929 128.592 301.255 128.592C301.881 128.592 302.553 128.578 303.271 128.55C303.99 128.513 304.713 128.461 305.441 128.396C306.179 128.331 306.879 128.237 307.541 128.116L307.527 129.152C307.042 129.236 306.524 129.306 305.973 129.362C305.423 129.409 304.863 129.451 304.293 129.488C303.724 129.516 303.173 129.539 302.641 129.558C302.119 129.567 301.633 129.572 301.185 129.572C300.989 129.572 300.761 129.572 300.499 129.572C300.247 129.563 299.981 129.553 299.701 129.544C299.421 129.525 299.151 129.507 298.889 129.488V128.438ZM309.585 131.826C309.464 131.854 309.329 131.896 309.179 131.952C309.039 131.999 308.895 132.05 308.745 132.106C308.605 132.162 308.47 132.218 308.339 132.274C307.854 132.461 307.289 132.689 306.645 132.96C306.001 133.231 305.343 133.543 304.671 133.898C304.205 134.131 303.794 134.379 303.439 134.64C303.085 134.892 302.805 135.158 302.599 135.438C302.394 135.709 302.291 136.007 302.291 136.334C302.291 136.605 302.352 136.824 302.473 136.992C302.604 137.16 302.786 137.291 303.019 137.384C303.253 137.468 303.519 137.524 303.817 137.552C304.125 137.58 304.461 137.594 304.825 137.594C305.367 137.594 305.983 137.566 306.673 137.51C307.373 137.445 308.031 137.361 308.647 137.258L308.619 138.378C308.265 138.425 307.863 138.467 307.415 138.504C306.977 138.541 306.529 138.569 306.071 138.588C305.623 138.616 305.194 138.63 304.783 138.63C304.121 138.63 303.514 138.569 302.963 138.448C302.422 138.327 301.988 138.112 301.661 137.804C301.335 137.496 301.171 137.057 301.171 136.488C301.171 136.068 301.269 135.685 301.465 135.34C301.661 134.985 301.923 134.663 302.249 134.374C302.585 134.085 302.954 133.819 303.355 133.576C303.757 133.324 304.167 133.095 304.587 132.89C305.035 132.647 305.455 132.437 305.847 132.26C306.249 132.083 306.627 131.919 306.981 131.77C307.336 131.621 307.667 131.471 307.975 131.322C308.181 131.229 308.377 131.14 308.563 131.056C308.75 130.972 308.937 130.879 309.123 130.776L309.585 131.826ZM318.545 133.016H324.019V133.828H318.545V133.016ZM318.545 135.312H324.019V136.138H318.545V135.312ZM318.559 137.608H324.677V138.504H318.559V137.608ZM316.949 127.668H324.607V130.076H323.655V128.578H317.873V130.076H316.949V127.668ZM320.813 131.336H321.793V138.084H320.813V131.336ZM318.909 130.678H324.257V131.588H318.909V139.12H317.915V131.616L318.825 130.678H318.909ZM320.239 126.226L321.233 126.422C320.841 127.841 320.3 129.119 319.609 130.258C318.928 131.397 318.111 132.339 317.159 133.086C317.113 133.021 317.043 132.941 316.949 132.848C316.865 132.745 316.772 132.647 316.669 132.554C316.576 132.461 316.492 132.386 316.417 132.33C317.341 131.649 318.121 130.785 318.755 129.74C319.399 128.685 319.894 127.514 320.239 126.226ZM321.695 129.012L322.675 129.25C322.507 129.614 322.335 129.983 322.157 130.356C321.989 130.72 321.826 131.033 321.667 131.294L320.869 131.07C321.019 130.79 321.173 130.454 321.331 130.062C321.49 129.661 321.611 129.311 321.695 129.012ZM311.979 127.178H316.921V128.158H311.979V127.178ZM313.393 131.266H316.543V137.398H313.393V136.474H315.633V132.204H313.393V131.266ZM313.617 127.64L314.625 127.794C314.485 128.774 314.303 129.726 314.079 130.65C313.865 131.565 313.599 132.419 313.281 133.212C312.973 134.005 312.605 134.71 312.175 135.326C312.138 135.251 312.082 135.153 312.007 135.032C311.933 134.901 311.858 134.775 311.783 134.654C311.709 134.523 311.639 134.421 311.573 134.346C311.947 133.814 312.264 133.198 312.525 132.498C312.796 131.789 313.02 131.023 313.197 130.202C313.375 129.371 313.515 128.517 313.617 127.64ZM312.959 131.266H313.841V138.504H312.959V131.266ZM333.917 127.22H334.883C334.818 127.78 334.715 128.34 334.575 128.9C334.435 129.451 334.239 129.978 333.987 130.482C333.735 130.986 333.404 131.453 332.993 131.882C332.583 132.302 332.069 132.666 331.453 132.974C331.397 132.862 331.304 132.731 331.173 132.582C331.052 132.433 330.94 132.316 330.837 132.232C331.407 131.971 331.878 131.653 332.251 131.28C332.625 130.897 332.923 130.487 333.147 130.048C333.371 129.6 333.539 129.138 333.651 128.662C333.773 128.177 333.861 127.696 333.917 127.22ZM331.355 129.222L331.859 128.48C332.345 128.648 332.849 128.849 333.371 129.082C333.894 129.306 334.384 129.544 334.841 129.796C335.308 130.039 335.695 130.267 336.003 130.482L335.485 131.308C335.177 131.084 334.79 130.841 334.323 130.58C333.866 130.319 333.376 130.067 332.853 129.824C332.34 129.581 331.841 129.381 331.355 129.222ZM337.221 126.842H338.215C338.215 126.842 338.215 126.87 338.215 126.926C338.215 126.973 338.215 127.033 338.215 127.108C338.215 127.173 338.215 127.229 338.215 127.276C338.169 128.377 338.117 129.269 338.061 129.95C338.005 130.631 337.94 131.149 337.865 131.504C337.791 131.859 337.693 132.101 337.571 132.232C337.469 132.372 337.352 132.47 337.221 132.526C337.091 132.582 336.927 132.619 336.731 132.638C336.563 132.657 336.33 132.666 336.031 132.666C335.742 132.657 335.429 132.643 335.093 132.624C335.084 132.484 335.056 132.325 335.009 132.148C334.963 131.961 334.897 131.803 334.813 131.672C335.14 131.7 335.439 131.719 335.709 131.728C335.98 131.728 336.171 131.728 336.283 131.728C336.489 131.747 336.638 131.7 336.731 131.588C336.815 131.495 336.885 131.289 336.941 130.972C337.007 130.655 337.063 130.179 337.109 129.544C337.156 128.909 337.193 128.065 337.221 127.01V126.842ZM332.937 134.29H333.903V137.678C333.903 137.846 333.931 137.953 333.987 138C334.043 138.047 334.169 138.07 334.365 138.07C334.403 138.07 334.482 138.07 334.603 138.07C334.725 138.07 334.855 138.07 334.995 138.07C335.145 138.07 335.28 138.07 335.401 138.07C335.523 138.07 335.616 138.07 335.681 138.07C335.803 138.07 335.896 138.037 335.961 137.972C336.027 137.897 336.073 137.748 336.101 137.524C336.129 137.3 336.148 136.95 336.157 136.474C336.223 136.53 336.307 136.586 336.409 136.642C336.512 136.689 336.619 136.731 336.731 136.768C336.843 136.805 336.946 136.838 337.039 136.866C337.011 137.435 336.955 137.874 336.871 138.182C336.787 138.499 336.657 138.714 336.479 138.826C336.311 138.947 336.078 139.008 335.779 139.008C335.733 139.008 335.635 139.008 335.485 139.008C335.336 139.008 335.177 139.008 335.009 139.008C334.841 139.008 334.683 139.008 334.533 139.008C334.393 139.008 334.291 139.008 334.225 139.008C333.88 139.008 333.609 138.971 333.413 138.896C333.227 138.821 333.101 138.686 333.035 138.49C332.97 138.294 332.937 138.028 332.937 137.692V134.29ZM331.607 134.766L332.447 134.99C332.401 135.401 332.331 135.816 332.237 136.236C332.153 136.656 332.032 137.053 331.873 137.426C331.715 137.79 331.514 138.103 331.271 138.364L330.487 137.86C330.711 137.627 330.893 137.347 331.033 137.02C331.183 136.684 331.304 136.325 331.397 135.942C331.491 135.55 331.561 135.158 331.607 134.766ZM333.161 133.016L333.791 132.4C334.099 132.549 334.412 132.731 334.729 132.946C335.047 133.161 335.345 133.38 335.625 133.604C335.905 133.828 336.129 134.038 336.297 134.234L335.653 134.934C335.485 134.738 335.266 134.523 334.995 134.29C334.725 134.057 334.431 133.833 334.113 133.618C333.796 133.394 333.479 133.193 333.161 133.016ZM336.437 134.864L337.291 134.514C337.543 134.859 337.777 135.233 337.991 135.634C338.215 136.026 338.402 136.418 338.551 136.81C338.71 137.202 338.822 137.557 338.887 137.874L337.949 138.252C337.893 137.935 337.791 137.58 337.641 137.188C337.492 136.796 337.31 136.399 337.095 135.998C336.89 135.587 336.671 135.209 336.437 134.864ZM331.467 126.842H337.669V127.738H331.467V126.842ZM326.399 130.482H330.375V131.308H326.399V130.482ZM326.455 126.73H330.333V127.57H326.455V126.73ZM326.399 132.344H330.375V133.184H326.399V132.344ZM325.769 128.564H330.781V129.446H325.769V128.564ZM326.875 134.234H330.389V138.322H326.875V137.454H329.479V135.116H326.875V134.234ZM326.385 134.234H327.281V138.966H326.385V134.234ZM343.997 127.094C343.96 127.327 343.932 127.565 343.913 127.808C343.895 128.041 343.881 128.275 343.871 128.508C343.853 128.9 343.834 129.385 343.815 129.964C343.797 130.543 343.778 131.159 343.759 131.812C343.741 132.456 343.727 133.1 343.717 133.744C343.708 134.388 343.703 134.967 343.703 135.48C343.703 135.993 343.801 136.404 343.997 136.712C344.193 137.02 344.464 137.239 344.809 137.37C345.155 137.501 345.551 137.566 345.999 137.566C346.634 137.566 347.208 137.487 347.721 137.328C348.235 137.16 348.692 136.941 349.093 136.67C349.495 136.39 349.849 136.077 350.157 135.732C350.475 135.387 350.759 135.032 351.011 134.668L351.809 135.62C351.567 135.956 351.268 136.306 350.913 136.67C350.568 137.025 350.157 137.356 349.681 137.664C349.205 137.972 348.655 138.224 348.029 138.42C347.413 138.616 346.723 138.714 345.957 138.714C345.295 138.714 344.707 138.611 344.193 138.406C343.68 138.201 343.279 137.869 342.989 137.412C342.7 136.955 342.555 136.348 342.555 135.592C342.555 135.172 342.56 134.71 342.569 134.206C342.579 133.693 342.593 133.165 342.611 132.624C342.63 132.083 342.644 131.555 342.653 131.042C342.663 130.519 342.672 130.039 342.681 129.6C342.691 129.161 342.695 128.797 342.695 128.508C342.695 128.247 342.686 127.995 342.667 127.752C342.649 127.509 342.621 127.285 342.583 127.08L343.997 127.094ZM361.259 126.884C361.241 127.005 361.222 127.141 361.203 127.29C361.194 127.439 361.185 127.617 361.175 127.822C361.175 127.962 361.171 128.172 361.161 128.452C361.161 128.732 361.161 129.049 361.161 129.404C361.161 129.749 361.161 130.099 361.161 130.454C361.161 130.809 361.161 131.135 361.161 131.434C361.161 131.901 361.171 132.391 361.189 132.904C361.208 133.417 361.231 133.917 361.259 134.402C361.287 134.887 361.311 135.331 361.329 135.732C361.348 136.133 361.357 136.451 361.357 136.684C361.357 137.011 361.278 137.323 361.119 137.622C360.97 137.921 360.713 138.163 360.349 138.35C359.995 138.546 359.509 138.644 358.893 138.644C357.885 138.644 357.115 138.467 356.583 138.112C356.051 137.767 355.785 137.258 355.785 136.586C355.785 136.157 355.911 135.783 356.163 135.466C356.425 135.149 356.798 134.901 357.283 134.724C357.769 134.537 358.347 134.444 359.019 134.444C359.757 134.444 360.447 134.533 361.091 134.71C361.745 134.878 362.342 135.093 362.883 135.354C363.425 135.615 363.905 135.891 364.325 136.18C364.745 136.46 365.091 136.712 365.361 136.936L364.717 137.93C364.4 137.631 364.031 137.333 363.611 137.034C363.201 136.735 362.748 136.46 362.253 136.208C361.768 135.956 361.241 135.755 360.671 135.606C360.111 135.447 359.514 135.368 358.879 135.368C358.207 135.368 357.694 135.48 357.339 135.704C356.994 135.928 356.821 136.203 356.821 136.53C356.821 136.735 356.887 136.927 357.017 137.104C357.148 137.272 357.358 137.407 357.647 137.51C357.937 137.613 358.31 137.664 358.767 137.664C359.038 137.664 359.285 137.631 359.509 137.566C359.733 137.491 359.911 137.365 360.041 137.188C360.181 137.011 360.251 136.763 360.251 136.446C360.251 136.175 360.242 135.825 360.223 135.396C360.214 134.957 360.2 134.495 360.181 134.01C360.163 133.515 360.144 133.039 360.125 132.582C360.116 132.125 360.111 131.742 360.111 131.434C360.111 131.117 360.111 130.795 360.111 130.468C360.111 130.132 360.111 129.801 360.111 129.474C360.111 129.147 360.111 128.835 360.111 128.536C360.121 128.237 360.125 127.967 360.125 127.724C360.125 127.612 360.121 127.467 360.111 127.29C360.102 127.113 360.088 126.977 360.069 126.884H361.259ZM355.897 128.41C356.131 128.447 356.401 128.485 356.709 128.522C357.017 128.559 357.339 128.597 357.675 128.634C358.021 128.662 358.347 128.685 358.655 128.704C358.973 128.713 359.248 128.718 359.481 128.718C360.368 128.718 361.273 128.685 362.197 128.62C363.131 128.555 364.05 128.447 364.955 128.298L364.941 129.32C364.428 129.376 363.868 129.432 363.261 129.488C362.655 129.544 362.029 129.591 361.385 129.628C360.751 129.665 360.121 129.684 359.495 129.684C359.169 129.684 358.781 129.67 358.333 129.642C357.885 129.614 357.442 129.581 357.003 129.544C356.574 129.507 356.21 129.474 355.911 129.446L355.897 128.41ZM355.827 131.378C356.079 131.415 356.359 131.453 356.667 131.49C356.975 131.527 357.293 131.555 357.619 131.574C357.946 131.593 358.259 131.611 358.557 131.63C358.856 131.639 359.122 131.644 359.355 131.644C360.037 131.644 360.695 131.63 361.329 131.602C361.973 131.565 362.603 131.518 363.219 131.462C363.845 131.397 364.461 131.317 365.067 131.224L365.053 132.274C364.587 132.339 364.12 132.395 363.653 132.442C363.196 132.479 362.734 132.512 362.267 132.54C361.81 132.568 361.339 132.591 360.853 132.61C360.377 132.619 359.873 132.624 359.341 132.624C359.024 132.624 358.655 132.615 358.235 132.596C357.825 132.577 357.405 132.554 356.975 132.526C356.555 132.498 356.177 132.465 355.841 132.428L355.827 131.378ZM371.997 127.094C371.96 127.327 371.932 127.565 371.913 127.808C371.895 128.041 371.881 128.275 371.871 128.508C371.853 128.9 371.834 129.385 371.815 129.964C371.797 130.543 371.778 131.159 371.759 131.812C371.741 132.456 371.727 133.1 371.717 133.744C371.708 134.388 371.703 134.967 371.703 135.48C371.703 135.993 371.801 136.404 371.997 136.712C372.193 137.02 372.464 137.239 372.809 137.37C373.155 137.501 373.551 137.566 373.999 137.566C374.634 137.566 375.208 137.487 375.721 137.328C376.235 137.16 376.692 136.941 377.093 136.67C377.495 136.39 377.849 136.077 378.157 135.732C378.475 135.387 378.759 135.032 379.011 134.668L379.809 135.62C379.567 135.956 379.268 136.306 378.913 136.67C378.568 137.025 378.157 137.356 377.681 137.664C377.205 137.972 376.655 138.224 376.029 138.42C375.413 138.616 374.723 138.714 373.957 138.714C373.295 138.714 372.707 138.611 372.193 138.406C371.68 138.201 371.279 137.869 370.989 137.412C370.7 136.955 370.555 136.348 370.555 135.592C370.555 135.172 370.56 134.71 370.569 134.206C370.579 133.693 370.593 133.165 370.611 132.624C370.63 132.083 370.644 131.555 370.653 131.042C370.663 130.519 370.672 130.039 370.681 129.6C370.691 129.161 370.695 128.797 370.695 128.508C370.695 128.247 370.686 127.995 370.667 127.752C370.649 127.509 370.621 127.285 370.583 127.08L371.997 127.094ZM388.755 129.306C388.737 129.409 388.718 129.577 388.699 129.81C388.681 130.043 388.671 130.258 388.671 130.454C388.671 130.603 388.671 130.813 388.671 131.084C388.671 131.355 388.671 131.639 388.671 131.938C388.671 132.237 388.671 132.512 388.671 132.764C388.671 133.063 388.676 133.413 388.685 133.814C388.704 134.215 388.723 134.631 388.741 135.06C388.769 135.48 388.793 135.877 388.811 136.25C388.83 136.623 388.839 136.931 388.839 137.174C388.839 137.473 388.769 137.753 388.629 138.014C388.489 138.275 388.265 138.485 387.957 138.644C387.659 138.812 387.248 138.896 386.725 138.896C386.184 138.896 385.699 138.821 385.269 138.672C384.84 138.532 384.504 138.322 384.261 138.042C384.028 137.771 383.911 137.431 383.911 137.02C383.911 136.441 384.168 135.979 384.681 135.634C385.195 135.279 385.932 135.102 386.893 135.102C387.481 135.102 388.041 135.172 388.573 135.312C389.105 135.443 389.605 135.62 390.071 135.844C390.538 136.068 390.958 136.311 391.331 136.572C391.714 136.833 392.045 137.095 392.325 137.356L391.737 138.336C391.457 138.047 391.135 137.762 390.771 137.482C390.407 137.202 390.011 136.95 389.581 136.726C389.161 136.493 388.713 136.311 388.237 136.18C387.771 136.04 387.285 135.97 386.781 135.97C386.221 135.97 385.769 136.059 385.423 136.236C385.078 136.404 384.905 136.651 384.905 136.978C384.905 137.249 385.055 137.477 385.353 137.664C385.652 137.841 386.072 137.93 386.613 137.93C386.996 137.93 387.285 137.832 387.481 137.636C387.677 137.431 387.775 137.165 387.775 136.838C387.775 136.595 387.766 136.306 387.747 135.97C387.738 135.625 387.724 135.261 387.705 134.878C387.687 134.486 387.668 134.099 387.649 133.716C387.64 133.333 387.635 132.993 387.635 132.694C387.635 132.498 387.635 132.255 387.635 131.966C387.635 131.677 387.635 131.397 387.635 131.126C387.635 130.846 387.635 130.627 387.635 130.468C387.635 130.253 387.626 130.034 387.607 129.81C387.589 129.577 387.565 129.409 387.537 129.306H388.755ZM388.167 131.462C388.354 131.462 388.606 131.457 388.923 131.448C389.25 131.429 389.605 131.411 389.987 131.392C390.37 131.373 390.753 131.35 391.135 131.322C391.518 131.294 391.859 131.261 392.157 131.224L392.171 132.204C391.882 132.241 391.546 132.274 391.163 132.302C390.79 132.321 390.407 132.339 390.015 132.358C389.633 132.377 389.278 132.391 388.951 132.4C388.634 132.409 388.373 132.414 388.167 132.414V131.462ZM405.317 133.338C405.317 132.946 405.215 132.601 405.009 132.302C404.813 131.994 404.533 131.756 404.169 131.588C403.815 131.411 403.399 131.322 402.923 131.322C402.382 131.322 401.873 131.364 401.397 131.448C400.921 131.532 400.487 131.63 400.095 131.742C399.713 131.854 399.381 131.947 399.101 132.022C398.887 132.087 398.677 132.157 398.471 132.232C398.275 132.307 398.093 132.381 397.925 132.456L397.561 131.154C397.757 131.135 397.967 131.107 398.191 131.07C398.425 131.033 398.644 130.991 398.849 130.944C399.185 130.869 399.573 130.781 400.011 130.678C400.459 130.575 400.94 130.482 401.453 130.398C401.976 130.314 402.503 130.272 403.035 130.272C403.698 130.272 404.291 130.393 404.813 130.636C405.336 130.879 405.747 131.233 406.045 131.7C406.353 132.157 406.507 132.717 406.507 133.38C406.507 134.145 406.349 134.827 406.031 135.424C405.714 136.012 405.266 136.525 404.687 136.964C404.118 137.393 403.446 137.753 402.671 138.042C401.897 138.331 401.057 138.541 400.151 138.672L399.521 137.608C400.361 137.505 401.136 137.342 401.845 137.118C402.555 136.885 403.166 136.595 403.679 136.25C404.202 135.905 404.603 135.489 404.883 135.004C405.173 134.519 405.317 133.963 405.317 133.338ZM399.437 127.038C399.82 127.122 400.277 127.201 400.809 127.276C401.351 127.351 401.906 127.421 402.475 127.486C403.054 127.542 403.595 127.589 404.099 127.626C404.613 127.663 405.042 127.682 405.387 127.682L405.219 128.76C404.827 128.732 404.37 128.699 403.847 128.662C403.334 128.615 402.797 128.564 402.237 128.508C401.687 128.443 401.15 128.377 400.627 128.312C400.114 128.237 399.657 128.167 399.255 128.102L399.437 127.038ZM411.12 134.584C411.521 134.584 411.88 134.682 412.198 134.878C412.515 135.065 412.772 135.321 412.968 135.648C413.164 135.965 413.262 136.32 413.262 136.712C413.262 137.104 413.164 137.463 412.968 137.79C412.772 138.107 412.515 138.364 412.198 138.56C411.88 138.756 411.521 138.854 411.12 138.854C410.728 138.854 410.368 138.756 410.042 138.56C409.724 138.364 409.468 138.107 409.272 137.79C409.085 137.463 408.992 137.104 408.992 136.712C408.992 136.32 409.085 135.965 409.272 135.648C409.468 135.321 409.729 135.065 410.056 134.878C410.382 134.682 410.737 134.584 411.12 134.584ZM411.12 138.14C411.521 138.14 411.857 138.005 412.128 137.734C412.408 137.454 412.548 137.113 412.548 136.712C412.548 136.46 412.482 136.227 412.352 136.012C412.23 135.797 412.062 135.625 411.848 135.494C411.633 135.363 411.39 135.298 411.12 135.298C410.868 135.298 410.634 135.363 410.42 135.494C410.205 135.625 410.032 135.797 409.902 136.012C409.771 136.227 409.706 136.46 409.706 136.712C409.706 136.973 409.771 137.216 409.902 137.44C410.032 137.655 410.205 137.827 410.42 137.958C410.634 138.079 410.868 138.14 411.12 138.14Z" fill="#60666C"/>
<circle cx="227" cy="22" r="20.5" stroke="#2BC7BC" stroke-width="3"/>
<path d="M217.451 22.4506C217.356 22.5446 217.302 22.6726 217.302 22.8061C217.302 22.9397 217.356 23.0677 217.451 23.1617L224.012 29.6504C224.207 29.843 224.52 29.843 224.715 29.6504L236.916 17.5836C237.011 17.4897 237.065 17.3617 237.065 17.2281C237.065 17.0946 237.011 16.9665 236.916 16.8726L235.276 15.2504C235.081 15.0578 234.768 15.0578 234.573 15.2504L224.363 25.3473L219.794 20.8285C219.599 20.6358 219.286 20.6358 219.091 20.8285L217.451 22.4506Z" fill="#2BC7BC" stroke="#2BC7BC" stroke-linejoin="round"/>
</svg>
