<svg width="18" height="19" viewBox="0 0 18 19" fill="none" xmlns="http://www.w3.org/2000/svg">
<path d="M8.47059 9.32851V0.848047C8.47059 0.607767 8.57206 0.406356 8.775 0.243813C8.97794 0.0812711 9.22941 0 9.52941 0C9.82941 0 10.0809 0.0812711 10.2838 0.243813C10.4868 0.406356 10.5882 0.607767 10.5882 0.848047V9.32851H8.47059ZM4.23529 9.32851V1.69609C4.23529 1.45581 4.33676 1.2544 4.53971 1.09186C4.74265 0.929318 4.99412 0.848047 5.29412 0.848047C5.59412 0.848047 5.84559 0.929318 6.04853 1.09186C6.25147 1.2544 6.35294 1.45581 6.35294 1.69609V9.32851H4.23529ZM9 18.657C6.49412 18.657 4.36765 17.9574 2.62059 16.5581C0.873529 15.1588 0 13.4557 0 11.4486V3.39219C0 3.15191 0.101471 2.9505 0.304412 2.78795C0.507353 2.62541 0.758824 2.54414 1.05882 2.54414C1.35882 2.54414 1.61029 2.62541 1.81324 2.78795C2.01618 2.9505 2.11765 3.15191 2.11765 3.39219V11.4486C2.11765 12.9892 2.78382 14.2931 4.11618 15.3602C5.44853 16.4274 7.07647 16.9609 9 16.9609C10.9235 16.9609 12.5515 16.4274 13.8838 15.3602C15.2162 14.2931 15.8824 12.9892 15.8824 11.4486V8.48046C15.5824 8.48046 15.3309 8.56174 15.1279 8.72428C14.925 8.88682 14.8235 9.08823 14.8235 9.32851V12.7207H11.6471C11.0647 12.7207 10.5662 12.8868 10.1515 13.2189C9.73676 13.5511 9.52941 13.9504 9.52941 14.4168V15.2648H7.41176V14.4168C7.41176 13.4839 7.82647 12.6854 8.65588 12.0211C9.48529 11.3568 10.4824 11.0246 11.6471 11.0246H12.7059V2.54414C12.7059 2.30386 12.8074 2.10245 13.0103 1.93991C13.2132 1.77736 13.4647 1.69609 13.7647 1.69609C14.0647 1.69609 14.3162 1.77736 14.5191 1.93991C14.7221 2.10245 14.8235 2.30386 14.8235 2.54414V6.93278C15 6.89038 15.1721 6.85504 15.3397 6.82677C15.5074 6.79851 15.6882 6.78437 15.8824 6.78437H18V11.4486C18 13.4557 17.1265 15.1588 15.3794 16.5581C13.6324 17.9574 11.5059 18.657 9 18.657Z" fill="#2BC7BC"/>
</svg>
