<svg width="21" height="22" viewBox="0 0 21 22" fill="none" xmlns="http://www.w3.org/2000/svg">
<path d="M3.31374 22V17.27C2.26439 16.3167 1.44976 15.2029 0.869856 13.9288C0.289952 12.6546 0 11.3117 0 9.9C0 7.15 0.966507 4.8125 2.89952 2.8875C4.83253 0.9625 7.17976 0 9.94121 0C12.2424 0 14.2813 0.67375 16.0578 2.02125C17.8344 3.36875 18.9896 5.12417 19.5234 7.2875L20.9594 12.925C21.0514 13.2733 20.987 13.5896 20.7661 13.8738C20.5452 14.1579 20.2506 14.3 19.8824 14.3H17.6733V17.6C17.6733 18.205 17.457 18.7229 17.0243 19.1538C16.5917 19.5846 16.0716 19.8 15.4641 19.8H13.255V22H11.0458V17.6H15.4641V12.1H18.4465L17.3971 7.8375C16.9737 6.16917 16.0716 4.8125 14.6909 3.7675C13.3102 2.7225 11.7269 2.2 9.94121 2.2C7.80569 2.2 5.98314 2.9425 4.47355 4.4275C2.96395 5.9125 2.20916 7.71833 2.20916 9.845C2.20916 10.945 2.43468 11.99 2.88571 12.98C3.33675 13.97 3.97649 14.85 4.80492 15.62L5.5229 16.28V22H3.31374ZM9.94121 15.4C10.2542 15.4 10.5165 15.2946 10.7282 15.0838C10.9399 14.8729 11.0458 14.6117 11.0458 14.3C11.0458 13.9883 10.9399 13.7271 10.7282 13.5163C10.5165 13.3054 10.2542 13.2 9.94121 13.2C9.62825 13.2 9.36591 13.3054 9.1542 13.5163C8.94249 13.7271 8.83663 13.9883 8.83663 14.3C8.83663 14.6117 8.94249 14.8729 9.1542 15.0838C9.36591 15.2946 9.62825 15.4 9.94121 15.4ZM9.11278 11.88H10.7973C10.7973 11.4217 10.8571 11.0504 10.9768 10.7663C11.0964 10.4821 11.3403 10.1383 11.7085 9.735C12.0399 9.36833 12.3621 8.99708 12.675 8.62125C12.988 8.24542 13.1445 7.755 13.1445 7.15C13.1445 6.38 12.8453 5.72917 12.247 5.1975C11.6487 4.66583 10.9077 4.4 10.0241 4.4C9.28767 4.4 8.62032 4.61083 8.02201 5.0325C7.42369 5.45417 7.00487 6.00417 6.76555 6.6825L8.28434 7.315C8.41321 6.91167 8.63873 6.58625 8.9609 6.33875C9.28307 6.09125 9.63745 5.9675 10.0241 5.9675C10.4291 5.9675 10.765 6.0775 11.032 6.2975C11.2989 6.5175 11.4324 6.80167 11.4324 7.15C11.4324 7.535 11.3173 7.87875 11.0872 8.18125C10.8571 8.48375 10.5856 8.79083 10.2726 9.1025C9.90439 9.4875 9.61904 9.8725 9.41654 10.2575C9.21403 10.6425 9.11278 11.1833 9.11278 11.88Z" fill="#2BC7BC"/>
</svg>
