<svg width="78" height="27" viewBox="0 0 78 27" fill="none" xmlns="http://www.w3.org/2000/svg">
<path d="M36.08 7.56C35.2 7.56 34.4067 7.71333 33.7 8.02C33.0067 8.31333 32.42 8.74 31.94 9.3C31.46 9.84667 31.0933 10.5067 30.84 11.28C30.5867 12.04 30.46 12.8867 30.46 13.82C30.46 15.1 30.66 16.22 31.06 17.18C31.46 18.1267 32.06 18.86 32.86 19.38C33.6733 19.9 34.68 20.16 35.88 20.16C36.5733 20.16 37.2133 20.1067 37.8 20C38.3867 19.8933 38.9267 19.76 39.42 19.6V20.6C38.94 20.7867 38.4 20.9333 37.8 21.04C37.2133 21.1467 36.5267 21.2 35.74 21.2C34.3133 21.2 33.1133 20.8933 32.14 20.28C31.18 19.6667 30.4533 18.8067 29.96 17.7C29.48 16.5933 29.24 15.3 29.24 13.82C29.24 12.7667 29.3933 11.7933 29.7 10.9C30.0067 10.0067 30.4533 9.23333 31.04 8.58C31.6267 7.92667 32.34 7.42 33.18 7.06C34.0333 6.7 35.0067 6.52 36.1 6.52C36.78 6.52 37.4333 6.58667 38.06 6.72C38.7 6.85333 39.2933 7.04667 39.84 7.3L39.38 8.32C38.8733 8.06667 38.34 7.88 37.78 7.76C37.2333 7.62667 36.6667 7.56 36.08 7.56ZM51.1209 15.68C51.1209 16.5067 51.0143 17.26 50.8009 17.94C50.6009 18.6067 50.2943 19.1867 49.8809 19.68C49.4809 20.16 48.9809 20.5333 48.3809 20.8C47.7809 21.0667 47.0943 21.2 46.3209 21.2C45.5876 21.2 44.9276 21.0733 44.3409 20.82C43.7676 20.5533 43.2743 20.18 42.8609 19.7C42.4476 19.2067 42.1343 18.62 41.9209 17.94C41.7076 17.26 41.6009 16.5067 41.6009 15.68C41.6009 14.52 41.7876 13.5333 42.1609 12.72C42.5476 11.8933 43.1009 11.26 43.8209 10.82C44.5543 10.38 45.4209 10.16 46.4209 10.16C47.4343 10.16 48.2876 10.3933 48.9809 10.86C49.6876 11.3133 50.2209 11.9533 50.5809 12.78C50.9409 13.6067 51.1209 14.5733 51.1209 15.68ZM42.7809 15.68C42.7809 16.5867 42.9076 17.3867 43.1609 18.08C43.4143 18.76 43.8076 19.2867 44.3409 19.66C44.8743 20.0333 45.5409 20.22 46.3409 20.22C47.1676 20.22 47.8476 20.0333 48.3809 19.66C48.9143 19.2733 49.3076 18.74 49.5609 18.06C49.8143 17.3667 49.9409 16.5733 49.9409 15.68C49.9409 14.7867 49.8209 14 49.5809 13.32C49.3409 12.64 48.9609 12.1067 48.4409 11.72C47.9209 11.3333 47.2409 11.14 46.4009 11.14C45.1876 11.14 44.2809 11.54 43.6809 12.34C43.0809 13.14 42.7809 14.2533 42.7809 15.68ZM58.3778 10.18C58.6445 10.18 58.8978 10.2 59.1378 10.24C59.3911 10.2667 59.6178 10.3067 59.8178 10.36L59.6578 11.4C59.4445 11.3467 59.2311 11.3067 59.0178 11.28C58.8045 11.24 58.5711 11.22 58.3178 11.22C57.8378 11.22 57.4045 11.3133 57.0178 11.5C56.6311 11.6867 56.2978 11.9533 56.0178 12.3C55.7378 12.6467 55.5245 13.06 55.3778 13.54C55.2311 14.02 55.1578 14.56 55.1578 15.16V21H54.0178V10.36H54.9778L55.0978 12.36H55.1578C55.3311 11.9467 55.5645 11.58 55.8578 11.26C56.1645 10.9267 56.5311 10.6667 56.9578 10.48C57.3845 10.28 57.8578 10.18 58.3778 10.18ZM65.5183 10.16C66.4383 10.16 67.1983 10.3733 67.7983 10.8C68.4116 11.2133 68.8716 11.7867 69.1783 12.52C69.4983 13.2533 69.6583 14.1 69.6583 15.06V15.82H62.0583C62.0583 17.2467 62.3849 18.3333 63.0383 19.08C63.7049 19.8267 64.6449 20.2 65.8583 20.2C66.5249 20.2 67.1049 20.1467 67.5983 20.04C68.0916 19.9333 68.6316 19.7467 69.2183 19.48V20.52C68.6849 20.76 68.1583 20.9333 67.6383 21.04C67.1183 21.1467 66.5116 21.2 65.8183 21.2C64.7649 21.2 63.8649 20.98 63.1183 20.54C62.3849 20.1 61.8249 19.4733 61.4383 18.66C61.0649 17.8333 60.8783 16.8733 60.8783 15.78C60.8783 14.6867 61.0583 13.72 61.4183 12.88C61.7783 12.04 62.3049 11.38 62.9983 10.9C63.6916 10.4067 64.5316 10.16 65.5183 10.16ZM65.5183 11.12C64.5316 11.12 63.7383 11.4467 63.1383 12.1C62.5383 12.74 62.1849 13.6667 62.0783 14.88H68.4783C68.4783 14.1333 68.3716 13.48 68.1583 12.92C67.9449 12.36 67.6183 11.92 67.1783 11.6C66.7516 11.28 66.1983 11.12 65.5183 11.12ZM75.5334 20.24C75.8268 20.24 76.1068 20.22 76.3734 20.18C76.6401 20.1267 76.8734 20.0667 77.0734 20V20.92C76.8734 21 76.6201 21.0667 76.3134 21.12C76.0201 21.1733 75.7068 21.2 75.3734 21.2C74.7868 21.2 74.2868 21.0933 73.8734 20.88C73.4601 20.6533 73.1401 20.3067 72.9134 19.84C72.7001 19.3733 72.5934 18.7733 72.5934 18.04V11.28H71.0334V10.64L72.5934 10.28L73.0134 7.82H73.7334V10.36H77.0134V11.28H73.7334V18C73.7334 18.7333 73.8801 19.2933 74.1734 19.68C74.4668 20.0533 74.9201 20.24 75.5334 20.24Z" fill="#AFB2B5"/>
<path d="M17.5058 12C17.5058 14.9997 17.0181 17.6969 16.244 19.6294C15.8566 20.5968 15.4052 21.3529 14.9245 21.8605C14.4446 22.3673 13.9631 22.6 13.5 22.6C13.0369 22.6 12.5554 22.3673 12.0755 21.8605C11.5948 21.3529 11.1434 20.5968 10.7559 19.6294C9.98189 17.6969 9.49418 14.9997 9.49418 12C9.49418 9.00035 9.98189 6.30311 10.7559 4.37055C11.1434 3.40317 11.5948 2.64713 12.0755 2.13947C12.5554 1.63267 13.0369 1.4 13.5 1.4C13.9631 1.4 14.4446 1.63267 14.9245 2.13947C15.4052 2.64713 15.8566 3.40317 16.244 4.37055C17.0181 6.30311 17.5058 9.00035 17.5058 12Z" stroke="#AFB2B5" stroke-width="0.8"/>
<path d="M16.2953 9.90649C19.1407 12.0378 21.358 14.2175 22.6473 16.0109C23.2934 16.9096 23.6936 17.6938 23.8348 18.3156C23.9785 18.9481 23.8394 19.3326 23.5645 19.5385C23.2895 19.7444 22.7762 19.8486 21.9318 19.741C21.1016 19.6353 20.0547 19.3355 18.8548 18.8516C16.4604 17.8858 13.5503 16.2251 10.7048 14.0938C7.85936 11.9625 5.64206 9.78282 4.35276 7.98936C3.70667 7.09065 3.30642 6.30648 3.16522 5.68464C3.0216 5.05215 3.16066 4.66769 3.43559 4.46177C3.71052 4.25584 4.22381 4.15168 5.06824 4.25925C5.89845 4.36502 6.9454 4.66481 8.14526 5.14873C10.5397 6.11444 13.4498 7.77522 16.2953 9.90649Z" stroke="#AFB2B5" stroke-width="0.8"/>
<path d="M16.2953 14.0938C19.1407 11.9625 21.358 9.78278 22.6473 7.98932C23.2934 7.09061 23.6936 6.30644 23.8348 5.6846C23.9785 5.05211 23.8394 4.66765 23.5645 4.46173C23.2895 4.2558 22.7762 4.15164 21.9318 4.25921C21.1016 4.36498 20.0547 4.66477 18.8548 5.14869C16.4604 6.1144 13.5503 7.77518 10.7048 9.90645C7.85936 12.0377 5.64206 14.2174 4.35276 16.0109C3.70667 16.9096 3.30642 17.6938 3.16522 18.3156C3.0216 18.9481 3.16066 19.3326 3.43559 19.5385C3.71052 19.7444 4.22381 19.8486 5.06824 19.741C5.89845 19.6352 6.9454 19.3354 8.14526 18.8515C10.5397 17.8858 13.4498 16.225 16.2953 14.0938Z" stroke="#AFB2B5" stroke-width="0.8"/>
<ellipse cx="13.5" cy="12" rx="1.5" ry="1.43478" fill="#AFB2B5"/>
</svg>
