<svg width="100" height="34" viewBox="0 0 100 34" fill="none" xmlns="http://www.w3.org/2000/svg">
<path d="M48.1 10.2C47 10.2 46.0083 10.3917 45.125 10.775C44.2583 11.1417 43.525 11.675 42.925 12.375C42.325 13.0583 41.8667 13.8833 41.55 14.85C41.2333 15.8 41.075 16.8583 41.075 18.025C41.075 19.625 41.325 21.025 41.825 22.225C42.325 23.4083 43.075 24.325 44.075 24.975C45.0917 25.625 46.35 25.95 47.85 25.95C48.7167 25.95 49.5167 25.8833 50.25 25.75C50.9833 25.6167 51.6583 25.45 52.275 25.25V26.5C51.675 26.7333 51 26.9167 50.25 27.05C49.5167 27.1833 48.6583 27.25 47.675 27.25C45.8917 27.25 44.3917 26.8667 43.175 26.1C41.975 25.3333 41.0667 24.2583 40.45 22.875C39.85 21.4917 39.55 19.875 39.55 18.025C39.55 16.7083 39.7417 15.4917 40.125 14.375C40.5083 13.2583 41.0667 12.2917 41.8 11.475C42.5333 10.6583 43.425 10.025 44.475 9.575C45.5417 9.125 46.7583 8.9 48.125 8.9C48.975 8.9 49.7917 8.98333 50.575 9.15C51.375 9.31667 52.1167 9.55833 52.8 9.875L52.225 11.15C51.5917 10.8333 50.925 10.6 50.225 10.45C49.5417 10.2833 48.8333 10.2 48.1 10.2ZM66.9012 20.35C66.9012 21.3833 66.7678 22.325 66.5012 23.175C66.2512 24.0083 65.8678 24.7333 65.3512 25.35C64.8512 25.95 64.2262 26.4167 63.4762 26.75C62.7262 27.0833 61.8678 27.25 60.9012 27.25C59.9845 27.25 59.1595 27.0917 58.4262 26.775C57.7095 26.4417 57.0928 25.975 56.5762 25.375C56.0595 24.7583 55.6678 24.025 55.4012 23.175C55.1345 22.325 55.0012 21.3833 55.0012 20.35C55.0012 18.9 55.2345 17.6667 55.7012 16.65C56.1845 15.6167 56.8762 14.825 57.7762 14.275C58.6928 13.725 59.7762 13.45 61.0262 13.45C62.2928 13.45 63.3595 13.7417 64.2262 14.325C65.1095 14.8917 65.7762 15.6917 66.2262 16.725C66.6762 17.7583 66.9012 18.9667 66.9012 20.35ZM56.4762 20.35C56.4762 21.4833 56.6345 22.4833 56.9512 23.35C57.2678 24.2 57.7595 24.8583 58.4262 25.325C59.0928 25.7917 59.9262 26.025 60.9262 26.025C61.9595 26.025 62.8095 25.7917 63.4762 25.325C64.1428 24.8417 64.6345 24.175 64.9512 23.325C65.2678 22.4583 65.4262 21.4667 65.4262 20.35C65.4262 19.2333 65.2762 18.25 64.9762 17.4C64.6762 16.55 64.2012 15.8833 63.5512 15.4C62.9012 14.9167 62.0512 14.675 61.0012 14.675C59.4845 14.675 58.3512 15.175 57.6012 16.175C56.8512 17.175 56.4762 18.5667 56.4762 20.35ZM75.9723 13.475C76.3056 13.475 76.6223 13.5 76.9223 13.55C77.2389 13.5833 77.5223 13.6333 77.7723 13.7L77.5723 15C77.3056 14.9333 77.0389 14.8833 76.7723 14.85C76.5056 14.8 76.2139 14.775 75.8973 14.775C75.2973 14.775 74.7556 14.8917 74.2723 15.125C73.7889 15.3583 73.3723 15.6917 73.0223 16.125C72.6723 16.5583 72.4056 17.075 72.2223 17.675C72.0389 18.275 71.9473 18.95 71.9473 19.7V27H70.5223V13.7H71.7223L71.8723 16.2H71.9473C72.1639 15.6833 72.4556 15.225 72.8223 14.825C73.2056 14.4083 73.6639 14.0833 74.1973 13.85C74.7306 13.6 75.3223 13.475 75.9723 13.475ZM84.8979 13.45C86.0479 13.45 86.9979 13.7167 87.7479 14.25C88.5145 14.7667 89.0895 15.4833 89.4729 16.4C89.8729 17.3167 90.0729 18.375 90.0729 19.575V20.525H80.5729C80.5729 22.3083 80.9812 23.6667 81.7979 24.6C82.6312 25.5333 83.8062 26 85.3229 26C86.1562 26 86.8812 25.9333 87.4979 25.8C88.1145 25.6667 88.7895 25.4333 89.5229 25.1V26.4C88.8562 26.7 88.1979 26.9167 87.5479 27.05C86.8979 27.1833 86.1395 27.25 85.2729 27.25C83.9562 27.25 82.8312 26.975 81.8979 26.425C80.9812 25.875 80.2812 25.0917 79.7979 24.075C79.3312 23.0417 79.0979 21.8417 79.0979 20.475C79.0979 19.1083 79.3229 17.9 79.7729 16.85C80.2229 15.8 80.8812 14.975 81.7479 14.375C82.6145 13.7583 83.6645 13.45 84.8979 13.45ZM84.8979 14.65C83.6645 14.65 82.6729 15.0583 81.9229 15.875C81.1729 16.675 80.7312 17.8333 80.5979 19.35H88.5979C88.5979 18.4167 88.4645 17.6 88.1979 16.9C87.9312 16.2 87.5229 15.65 86.9729 15.25C86.4395 14.85 85.7479 14.65 84.8979 14.65ZM97.4168 26.05C97.7835 26.05 98.1335 26.025 98.4668 25.975C98.8001 25.9083 99.0918 25.8333 99.3418 25.75V26.9C99.0918 27 98.7751 27.0833 98.3918 27.15C98.0251 27.2167 97.6335 27.25 97.2168 27.25C96.4835 27.25 95.8585 27.1167 95.3418 26.85C94.8251 26.5667 94.4251 26.1333 94.1418 25.55C93.8751 24.9667 93.7418 24.2167 93.7418 23.3V14.85H91.7918V14.05L93.7418 13.6L94.2668 10.525H95.1668V13.7H99.2668V14.85H95.1668V23.25C95.1668 24.1667 95.3501 24.8667 95.7168 25.35C96.0835 25.8167 96.6501 26.05 97.4168 26.05Z" fill="white"/>
<path d="M22.1981 14.5C22.1981 18.4725 21.5814 22.0532 20.5962 24.628C20.1031 25.9166 19.5246 26.9353 18.9 27.6257C18.2754 28.3162 17.6328 28.65 17 28.65C16.3672 28.65 15.7246 28.3162 15.1 27.6257C14.4754 26.9353 13.8969 25.9166 13.4038 24.628C12.4186 22.0532 11.8019 18.4725 11.8019 14.5C11.8019 10.5275 12.4186 6.9468 13.4038 4.37203C13.8969 3.08345 14.4754 2.06473 15.1 1.37428C15.7246 0.683835 16.3672 0.35 17 0.35C17.6328 0.35 18.2754 0.683835 18.9 1.37428C19.5246 2.06473 20.1031 3.08345 20.5962 4.37203C21.5814 6.9468 22.1981 10.5275 22.1981 14.5Z" stroke="white" stroke-width="0.7"/>
<path d="M20.6476 11.6401C24.2397 14.4564 27.0438 17.3405 28.6779 19.7198C29.4961 20.9112 30.0099 21.9603 30.1923 22.8012C30.3768 23.6518 30.2096 24.2171 29.8015 24.5371C29.3934 24.8571 28.6724 24.9882 27.5876 24.8435C26.515 24.7005 25.177 24.2976 23.6574 23.6561C20.6228 22.3749 16.9444 20.1763 13.3524 17.36C9.76035 14.5436 6.95616 11.6595 5.32215 9.28022C4.50391 8.08878 3.99012 7.03974 3.80769 6.19877C3.62319 5.34822 3.79038 4.78291 4.19851 4.46292C4.60664 4.14292 5.32764 4.01183 6.41245 4.1565C7.48503 4.29953 8.823 4.70237 10.3426 5.34391C13.3772 6.62507 17.0556 8.82371 20.6476 11.6401Z" stroke="white" stroke-width="0.7"/>
<path d="M20.6476 17.36C24.2397 14.5436 27.0438 11.6595 28.6779 9.28023C29.4961 8.08879 30.0099 7.03975 30.1923 6.19878C30.3768 5.34823 30.2096 4.78293 29.8015 4.46293C29.3934 4.14293 28.6724 4.01184 27.5876 4.15651C26.515 4.29954 25.177 4.70238 23.6574 5.34392C20.6228 6.62508 16.9444 8.82372 13.3524 11.6401C9.76035 14.4564 6.95616 17.3405 5.32215 19.7198C4.50391 20.9112 3.99012 21.9603 3.80769 22.8013C3.62319 23.6518 3.79038 24.2171 4.19851 24.5371C4.60664 24.8571 5.32764 24.9882 6.41245 24.8435C7.48503 24.7005 8.823 24.2977 10.3426 23.6561C13.3772 22.375 17.0556 20.1763 20.6476 17.36Z" stroke="white" stroke-width="0.7"/>
<ellipse cx="17" cy="14.5" rx="1.88889" ry="1.8913" fill="white"/>
</svg>
