<svg width="235" height="80" viewBox="0 0 235 80" fill="none" xmlns="http://www.w3.org/2000/svg">
<path d="M111.836 23.352C109.24 23.352 106.9 23.8043 104.815 24.709C102.77 25.5743 101.039 26.833 99.623 28.485C98.207 30.0977 97.1253 32.0447 96.378 34.326C95.6307 36.568 95.257 39.0657 95.257 41.819C95.257 45.595 95.847 48.899 97.027 51.731C98.207 54.5237 99.977 56.687 102.337 58.221C104.736 59.755 107.706 60.522 111.246 60.522C113.291 60.522 115.179 60.3647 116.91 60.05C118.641 59.7353 120.234 59.342 121.689 58.87V61.82C120.273 62.3707 118.68 62.8033 116.91 63.118C115.179 63.4327 113.154 63.59 110.833 63.59C106.624 63.59 103.084 62.6853 100.213 60.876C97.381 59.0667 95.2373 56.5297 93.782 53.265C92.366 50.0003 91.658 46.185 91.658 41.819C91.658 38.7117 92.1103 35.8403 93.015 33.205C93.9197 30.5697 95.2373 28.2883 96.968 26.361C98.6987 24.4337 100.803 22.939 103.281 21.877C105.798 20.815 108.67 20.284 111.895 20.284C113.901 20.284 115.828 20.4807 117.677 20.874C119.565 21.2673 121.315 21.8377 122.928 22.585L121.571 25.594C120.076 24.8467 118.503 24.296 116.851 23.942C115.238 23.5487 113.567 23.352 111.836 23.352ZM156.207 47.306C156.207 49.7447 155.892 51.967 155.263 53.973C154.673 55.9397 153.768 57.6507 152.549 59.106C151.369 60.522 149.894 61.6233 148.124 62.41C146.354 63.1967 144.328 63.59 142.047 63.59C139.883 63.59 137.936 63.2163 136.206 62.469C134.514 61.6823 133.059 60.581 131.84 59.165C130.62 57.7097 129.696 55.979 129.067 53.973C128.437 51.967 128.123 49.7447 128.123 47.306C128.123 43.884 128.673 40.9733 129.775 38.574C130.915 36.1353 132.548 34.267 134.672 32.969C136.835 31.671 139.392 31.022 142.342 31.022C145.331 31.022 147.848 31.7103 149.894 33.087C151.978 34.4243 153.552 36.3123 154.614 38.751C155.676 41.1897 156.207 44.0413 156.207 47.306ZM131.604 47.306C131.604 49.9807 131.977 52.3407 132.725 54.386C133.472 56.392 134.632 57.9457 136.206 59.047C137.779 60.1483 139.746 60.699 142.106 60.699C144.544 60.699 146.55 60.1483 148.124 59.047C149.697 57.9063 150.857 56.333 151.605 54.327C152.352 52.2817 152.726 49.9413 152.726 47.306C152.726 44.6707 152.372 42.35 151.664 40.344C150.956 38.338 149.835 36.7647 148.301 35.624C146.767 34.4833 144.761 33.913 142.283 33.913C138.703 33.913 136.029 35.093 134.259 37.453C132.489 39.813 131.604 43.0973 131.604 47.306ZM177.615 31.081C178.401 31.081 179.149 31.14 179.857 31.258C180.604 31.3367 181.273 31.4547 181.863 31.612L181.391 34.68C180.761 34.5227 180.132 34.4047 179.503 34.326C178.873 34.208 178.185 34.149 177.438 34.149C176.022 34.149 174.743 34.4243 173.603 34.975C172.462 35.5257 171.479 36.3123 170.653 37.335C169.827 38.3577 169.197 39.577 168.765 40.993C168.332 42.409 168.116 44.002 168.116 45.772V63H164.753V31.612H167.585L167.939 37.512H168.116C168.627 36.2927 169.315 35.211 170.181 34.267C171.085 33.2837 172.167 32.5167 173.426 31.966C174.684 31.376 176.081 31.081 177.615 31.081ZM198.679 31.022C201.393 31.022 203.635 31.6513 205.405 32.91C207.214 34.1293 208.571 35.8207 209.476 37.984C210.42 40.1473 210.892 42.645 210.892 45.477V47.719H188.472C188.472 51.9277 189.436 55.1333 191.363 57.336C193.33 59.5387 196.103 60.64 199.682 60.64C201.649 60.64 203.36 60.4827 204.815 60.168C206.27 59.8533 207.863 59.3027 209.594 58.516V61.584C208.021 62.292 206.467 62.8033 204.933 63.118C203.399 63.4327 201.609 63.59 199.564 63.59C196.457 63.59 193.802 62.941 191.599 61.643C189.436 60.345 187.784 58.4963 186.643 56.097C185.542 53.6583 184.991 50.8263 184.991 47.601C184.991 44.3757 185.522 41.524 186.584 39.046C187.646 36.568 189.2 34.621 191.245 33.205C193.29 31.7497 195.768 31.022 198.679 31.022ZM198.679 33.854C195.768 33.854 193.428 34.8177 191.658 36.745C189.888 38.633 188.846 41.3667 188.531 44.946H207.411C207.411 42.7433 207.096 40.816 206.467 39.164C205.838 37.512 204.874 36.214 203.576 35.27C202.317 34.326 200.685 33.854 198.679 33.854ZM228.224 60.758C229.089 60.758 229.915 60.699 230.702 60.581C231.488 60.4237 232.177 60.2467 232.767 60.05V62.764C232.177 63 231.429 63.1967 230.525 63.354C229.659 63.5113 228.735 63.59 227.752 63.59C226.021 63.59 224.546 63.2753 223.327 62.646C222.107 61.9773 221.163 60.9547 220.495 59.578C219.865 58.2013 219.551 56.4313 219.551 54.268V34.326H214.949V32.438L219.551 31.376L220.79 24.119H222.914V31.612H232.59V34.326H222.914V54.15C222.914 56.3133 223.346 57.9653 224.212 59.106C225.077 60.2073 226.414 60.758 228.224 60.758Z" fill="#2BC7BC"/>
<path d="M50.065 43C50.065 51.7438 48.6716 59.6142 46.4541 65.2619C45.3441 68.0888 44.0472 70.3087 42.6582 71.8049C41.2704 73.2999 39.8645 74 38.5003 74C37.1361 74 35.7302 73.2999 34.3424 71.8049C32.9534 70.3087 31.6565 68.0888 30.5465 65.2619C28.3289 59.6142 26.9355 51.7438 26.9355 43C26.9355 34.2562 28.3289 26.3858 30.5465 20.7381C31.6565 17.9112 32.9534 15.6913 34.3424 14.1951C35.7302 12.7001 37.1361 12 38.5003 12C39.8645 12 41.2704 12.7001 42.6582 14.1951C44.0472 15.6913 45.3441 17.9112 46.4541 20.7381C48.6716 26.3858 50.065 34.2562 50.065 43Z" stroke="#2BC7BC" stroke-width="2"/>
<path d="M46.59 36.8192C54.713 43.0255 61.0476 49.3763 64.7342 54.6073C66.581 57.2279 67.7315 59.523 68.1385 61.3512C68.5515 63.2063 68.1623 64.3776 67.3208 65.0206C66.4793 65.6635 64.9463 65.9609 62.5182 65.6454C60.1254 65.3344 57.1215 64.4554 53.6916 63.0443C46.8451 60.2276 38.533 55.3877 30.41 49.1814C22.287 42.975 15.9524 36.6243 12.2658 31.3932C10.419 28.7727 9.26846 26.4775 8.86149 24.6493C8.44851 22.7942 8.83776 21.6229 9.67923 20.98C10.5207 20.337 12.0537 20.0396 14.4818 20.3552C16.8746 20.6661 19.8785 21.5452 23.3084 22.9562C30.1549 25.773 38.467 30.6128 46.59 36.8192Z" stroke="#2BC7BC" stroke-width="2"/>
<path d="M46.59 49.1808C54.713 42.9745 61.0476 36.6237 64.7342 31.3927C66.581 28.7721 67.7315 26.477 68.1385 24.6488C68.5515 22.7937 68.1623 21.6224 67.3208 20.9794C66.4793 20.3365 64.9463 20.0391 62.5182 20.3546C60.1254 20.6656 57.1215 21.5446 53.6916 22.9557C46.8451 25.7724 38.533 30.6123 30.41 36.8186C22.287 43.025 15.9524 49.3757 12.2658 54.6068C10.419 57.2273 9.26846 59.5225 8.86149 61.3507C8.44851 63.2058 8.83776 64.3771 9.67923 65.02C10.5207 65.663 12.0537 65.9604 14.4818 65.6448C16.8746 65.3339 19.8785 64.4548 23.3084 63.0438C30.1549 60.227 38.467 55.3872 46.59 49.1808Z" stroke="#2BC7BC" stroke-width="2"/>
<ellipse cx="38.4999" cy="43" rx="4.27778" ry="4.17391" fill="#2BC7BC"/>
</svg>
